<?xml version="1.0" encoding="UTF-8"?>
<svg width="56px" height="56px" viewBox="0 0 56 56" version="1.1" xmlns="http://www.w3.org/2000/svg" xmlns:xlink="http://www.w3.org/1999/xlink">
    <title>Confluence</title>
    <defs>
        <linearGradient x1="5.99872076%" y1="3.796875%" x2="100%" y2="100%" id="linearGradient-1">
            <stop stop-color="#FF777A" offset="0%"></stop>
            <stop stop-color="#FE393B" offset="100%"></stop>
        </linearGradient>
    </defs>
    <g id="页面-1" stroke="none" stroke-width="1" fill="none" fill-rule="evenodd">
        <g id="快捷应用" transform="translate(-266.000000, -892.000000)">
            <g id="编组" transform="translate(232.000000, 118.000000)">
                <g id="编组-7" transform="translate(24.000000, 728.000000)">
                    <g id="Confluence" transform="translate(10.000000, 46.000000)">
                        <rect id="矩形备份-30" fill="url(#linearGradient-1)" x="0" y="0" width="56" height="56" rx="20"></rect>
                        <g id="confluence-white" transform="translate(12.250000, 12.250000)" fill="#FFFFFF" fill-rule="nonzero">
                            <path d="M1.117,23.719 C0.7925,24.2465 0.425,24.8655 0.1385,25.355 C-0.136369473,25.8235127 0.0130297455,26.4257713 0.475,26.7115 L6.975,30.722 C7.20284515,30.863586 7.4781329,30.907383 7.73866785,30.843496 C7.99920285,30.7796089 8.223001,30.6134286 8.3595,30.3825 C8.6175,29.946 8.9525,29.3825 9.3185,28.779 C11.894,24.529 14.485,25.047 19.151,27.265 L25.5955,30.3285 C25.8394381,30.4441969 26.1197933,30.4563421 26.3728228,30.362174 C26.6258523,30.268006 26.8300542,30.075527 26.939,29.8285 L30.034,22.84 C30.2539288,22.3434052 30.0372817,21.7620541 29.546,21.5305 C28.185,20.8905 25.4795,19.6135 23.058,18.441 C14.2565,14.1815 6.81,14.463 1.117,23.719 Z" id="路径"></path>
                            <path d="M30.259,7.336 C30.5835,6.808 30.951,6.1895 31.2375,5.702 C31.5137022,5.2330461 31.3641581,4.6293146 30.901,4.3435 L24.401,0.333 C24.1731548,0.191413935 23.8978671,0.14761693 23.6373321,0.21150398 C23.3767971,0.27539103 23.152999,0.44157133 23.0165,0.6725 C22.7585,1.109 22.4235,1.6725 22.0575,2.276 C19.482,6.526 16.891,6.008 12.225,3.79 L5.782,0.7265 C5.53806195,0.610803035 5.25770675,0.598657885 5.0046772,0.69282593 C4.75164768,0.78699397 4.54744587,0.979472955 4.4385,1.2265 L1.3435,8.213 C1.12357127,8.70959475 1.34021835,9.29094585 1.8315,9.5225 C3.1925,10.1625 5.898,11.4395 8.3195,12.612 C17.12,16.8735 24.566,16.592 30.259,7.336 Z" id="路径"></path>
                        </g>
                    </g>
                </g>
            </g>
        </g>
    </g>
</svg>