<?xml version="1.0" encoding="UTF-8"?>
<svg width="56px" height="56px" viewBox="0 0 56 56" version="1.1" xmlns="http://www.w3.org/2000/svg" xmlns:xlink="http://www.w3.org/1999/xlink">
    <title>分组 2</title>
    <defs>
        <linearGradient x1="5.99872076%" y1="3.796875%" x2="100%" y2="100%" id="linearGradient-1">
            <stop stop-color="#69A0FF" offset="0%"></stop>
            <stop stop-color="#0063F7" offset="100%"></stop>
        </linearGradient>
    </defs>
    <g id="页面-1" stroke="none" stroke-width="1" fill="none" fill-rule="evenodd">
        <g id="快捷应用" transform="translate(-1046.000000, -358.000000)">
            <g id="编组" transform="translate(232.000000, 118.000000)">
                <g id="编组-4" transform="translate(24.000000, 194.000000)">
                    <g id="分组-2" transform="translate(790.000000, 46.000000)">
                        <rect id="矩形备份-7" fill="url(#linearGradient-1)" x="0" y="0" width="56" height="56" rx="20"></rect>
                        <g id="分组" transform="translate(6.125000, 14.875000)">
                            <path d="M11.3083652,14.4546502 C12.1809302,14.8889758 13.1719808,15.134356 14.2227311,15.134356 C15.273088,15.134356 16.26379,14.8891596 17.136117,14.4551379 L17.1358205,20.7274876 L20.1394024,20.7274876 C21.3716412,20.7274876 22.443432,20.6054931 23.3547753,20.3615042 C23.5859393,20.2996159 23.8071933,20.2259541 24.018537,20.1405187 C24.9943438,21.5824365 26.6894581,22.5370301 28.6168198,22.5370301 C29.2712026,22.5370301 29.898813,22.4269888 30.4806675,22.2251302 C30.2856152,22.4344136 30.0799674,22.6310051 29.8649679,22.816023 C28.7264473,23.7957771 27.3576642,24.4877285 25.7586186,24.891877 C24.3372446,25.2511201 22.7794188,25.4506996 21.085141,25.4906156 L20.4433907,25.4980998 L11.3096418,25.4980998 L11.3083652,14.4546502 Z M28.6168198,13.9828289 C30.5095901,13.9828289 32.0439837,15.4558468 32.0439837,17.2729063 C32.0439837,19.0899659 30.5095901,20.5629838 28.6168198,20.5629838 C27.3843291,20.5629838 26.3037923,19.9384163 25.6999003,19.000985 L25.6267154,19.0805624 C26.229999,18.47059 26.6792527,17.6532272 26.9744766,16.6284737 C27.1732765,15.938418 27.3051418,15.1321936 27.3700724,14.2098005 C27.7561571,14.0624352 28.1768046,13.9828289 28.6168198,13.9828289 Z M20.4433907,0 L21.085141,0.00612346297 C22.7794188,0.0387819321 24.3372446,0.202074278 25.7586186,0.496000501 C27.3576642,0.826667501 28.7264473,1.45738418 29.8649679,2.38815056 C31.0034884,3.31891693 31.8797654,4.61709108 32.493799,6.28267301 C33.1078325,7.94825493 33.4148492,10.1037139 33.4148492,12.7490499 C33.4148492,13.4008219 33.3935386,14.023266 33.3509174,14.6163822 C32.3996086,13.0560982 30.6356171,12.0087825 28.6168198,12.0087825 C28.2013061,12.0087825 27.7965868,12.0531497 27.4075218,12.1372187 C27.3726456,10.7936817 27.2214553,9.67428944 26.9552229,8.77813023 C26.6471632,7.74117732 26.1914915,6.92381444 25.588208,6.32604159 C24.9849245,5.72826873 24.2276111,5.3195873 23.3162678,5.09999726 C22.5188425,4.90785599 21.6084018,4.79977653 20.5849457,4.77575886 L20.1394024,4.77061222 L18.7322076,4.76914433 C17.5828354,3.65279787 15.98693,2.96106966 14.2227311,2.96106966 C13.1719808,2.96106966 12.1809302,3.20644979 11.3083652,3.64077541 L11.3096418,0 L20.4433907,0 Z M14.2227311,4.93511609 C15.3480858,4.93511609 16.372093,5.35167932 17.1365668,6.03294728 L17.1365668,12.0624784 C16.372093,12.7437463 15.3480858,13.1603095 14.2227311,13.1603095 C13.0972557,13.1603095 12.0731495,12.743657 11.3086493,12.062259 L11.3086493,6.03316669 C12.0731495,5.35176877 13.0972557,4.93511609 14.2227311,4.93511609 Z" id="合并形状" fill="#FFFFFF" fill-rule="nonzero"></path>
                            <ellipse id="椭圆形" fill="#FFFFFF" fill-rule="nonzero" cx="3.08444756" cy="16.2858831" rx="3.08444756" ry="2.96106966"></ellipse>
                            <ellipse id="椭圆形备份" fill="#FFFFFF" fill-rule="nonzero" cx="14.2227304" cy="9.04771283" rx="4.28395494" ry="4.11259674"></ellipse>
                            <ellipse id="椭圆形备份-6" fill="#FFFFFF" fill-rule="nonzero" cx="40.2691765" cy="13.3248135" rx="3.08444756" ry="2.96106966"></ellipse>
                            <ellipse id="椭圆形备份-2" fill="#FFFFFF" fill-rule="nonzero" cx="28.616819" cy="17.2729063" rx="3.42716395" ry="3.29007739"></ellipse>
                            <polyline id="路径-3" stroke="#FFFFFF" stroke-width="1.3125" points="3.08444756 16.2858831 14.2227304 8.88320897 28.616819 17.2729063 40.2691765 13.3248135"></polyline>
                        </g>
                    </g>
                </g>
            </g>
        </g>
    </g>
</svg>