<?xml version="1.0" encoding="UTF-8"?>
<svg width="56px" height="56px" viewBox="0 0 56 56" version="1.1" xmlns="http://www.w3.org/2000/svg" xmlns:xlink="http://www.w3.org/1999/xlink">
    <title>Git</title>
    <defs>
        <linearGradient x1="5.99872076%" y1="3.796875%" x2="100%" y2="100%" id="linearGradient-1">
            <stop stop-color="#F8AD81" offset="0%"></stop>
            <stop stop-color="#FF8800" offset="100%"></stop>
        </linearGradient>
    </defs>
    <g id="页面-1" stroke="none" stroke-width="1" fill="none" fill-rule="evenodd">
        <g id="快捷应用" transform="translate(-266.000000, -358.000000)">
            <g id="编组" transform="translate(232.000000, 118.000000)">
                <g id="编组-4" transform="translate(24.000000, 194.000000)">
                    <g id="Git" transform="translate(10.000000, 46.000000)">
                        <rect id="矩形备份-13" fill="url(#linearGradient-1)" x="0" y="0" width="56" height="56" rx="20"></rect>
                        <g id="gitlab-icon-rgb" transform="translate(10.500000, 11.375000)">
                            <rect id="backgroundrect" x="-7.10542736e-14" y="-4.97379915e-14" width="33.567002" height="31.2017501"></rect>
                            <g id="Layer-1" transform="translate(0.195752, 2.009204)" fill="#FFFFFF" fill-rule="nonzero">
                                <g id="g44">
                                    <path d="M33.0391756,17.4928159 L31.1883426,11.8042694 L27.525827,0.521137421 C27.4393636,0.262998769 27.1975927,0.0890070538 26.9253585,0.0890070538 C26.6531242,0.0890070538 26.4113533,0.262998769 26.3248899,0.521137421 L22.6623743,11.7974181 L10.4934655,11.7974181 L6.83094989,0.521137421 C6.74502431,0.262725159 6.50329424,0.0883604154 6.23097072,0.0883604154 C5.95864719,0.0883604154 5.71691712,0.262725159 5.63099154,0.521137421 L1.97434848,11.7974181 L0.123515489,17.4928159 C-0.0451568536,18.0115277 0.138896533,18.5798814 0.579617114,18.9012499 L16.579388,30.5269475 L32.5762227,18.9012499 C33.0189472,18.5813348 33.2057559,18.0130097 33.0391756,17.4928159" id="path46"></path>
                                </g>
                                <g id="g48" transform="translate(10.472720, 11.745106)">
                                    <polygon id="path50" points="6.10666834 18.7730325 6.10666834 18.7730325 12.1906334 0.0513331731 0.0256396043 0.0513331731"></polygon>
                                </g>
                                <g id="g56" transform="translate(1.957518, 11.745106)">
                                    <polygon id="path58" points="14.6218703 18.7730325 8.53594781 0.0513331731 0.02074581 0.0513331731"></polygon>
                                </g>
                                <g id="g64" transform="translate(0.000000, 11.745106)">
                                    <path d="M1.9714122,0.0572057262 L1.9714122,0.0572057262 L0.120579213,5.74575217 C-0.0480931302,6.26446399 0.135960257,6.83281769 0.576680837,7.15418615 L16.579388,18.7818413 L1.9714122,0.0572057262 Z" id="path66"></path>
                                </g>
                                <g id="g72" transform="translate(1.957518, 0.000000)">
                                    <path d="M0.0168307746,11.8023119 L8.54279912,11.8023119 L4.87343219,0.527009974 C4.78696879,0.268871323 4.54519788,0.0948796069 4.27296364,0.0948796069 C4.00072939,0.0948796069 3.75895848,0.268871323 3.67249508,0.527009974 L0.0168307746,11.8023119 Z" id="path74"></path>
                                </g>
                                <g id="g76" transform="translate(16.541025, 11.745106)">
                                    <polygon id="path78" points="0.0383634693 18.7730325 6.12232848 0.0513331731 14.6512331 0.0513331731"></polygon>
                                </g>
                                <g id="g80" transform="translate(16.541025, 11.745106)">
                                    <path d="M14.6453606,0.0572057262 L14.6453606,0.0572057262 L16.4961935,5.74575217 C16.665838,6.26446299 16.4815995,6.83338837 16.0400919,7.15418615 L0.0383634693,18.7730325 L14.6414455,0.0572057262 L14.6453606,0.0572057262 Z" id="path82"></path>
                                </g>
                                <g id="g84" transform="translate(22.609329, 0.000000)">
                                    <path d="M8.58097072,11.8023119 L0.0559811286,11.8023119 L3.71849675,0.527009974 C3.80442233,0.268597712 4.0461524,0.0942329685 4.31847592,0.0942329685 C4.59079945,0.0942329685 4.83252952,0.268597712 4.9184551,0.527009974 L8.58097072,11.8023119 L8.58097072,11.8023119 Z" id="path86"></path>
                                </g>
                            </g>
                        </g>
                    </g>
                </g>
            </g>
        </g>
    </g>
</svg>