<?xml version="1.0" encoding="UTF-8"?>
<svg width="56px" height="56px" viewBox="0 0 56 56" version="1.1" xmlns="http://www.w3.org/2000/svg" xmlns:xlink="http://www.w3.org/1999/xlink">
    <title>Grafana</title>
    <defs>
        <linearGradient x1="5.99872076%" y1="3.796875%" x2="100%" y2="100%" id="linearGradient-1">
            <stop stop-color="#F8AD81" offset="0%"></stop>
            <stop stop-color="#FF8800" offset="100%"></stop>
        </linearGradient>
    </defs>
    <g id="页面-1" stroke="none" stroke-width="1" fill="none" fill-rule="evenodd">
        <g id="快捷应用" transform="translate(-422.000000, -714.000000)">
            <g id="编组" transform="translate(232.000000, 118.000000)">
                <g id="编组-6" transform="translate(24.000000, 550.000000)">
                    <g id="Grafana" transform="translate(166.000000, 46.000000)">
                        <rect id="矩形备份-23" fill="url(#linearGradient-1)" x="0" y="0" width="56" height="56" rx="20"></rect>
                        <path d="M42.8245631,25.560124 C42.7679822,24.9866736 42.6736807,24.3286157 42.4850776,23.5953512 C42.2964745,22.8714876 42.0135699,22.0724174 41.5986431,21.2451446 C41.1837163,20.4178719 40.6461976,19.5623967 39.9483662,18.7257231 C39.6748917,18.3966942 39.3731268,18.0770661 39.0525016,17.7668388 C39.5334394,15.8584711 38.467832,14.2039256 38.467832,14.2039256 C36.628952,14.0911157 35.459613,14.777376 35.0258259,15.0876033 C34.9503846,15.0594008 34.8843736,15.0217975 34.8089323,14.993595 C34.4977373,14.8713843 34.177112,14.7491736 33.8376265,14.6457645 C33.5075711,14.5423554 33.1680856,14.4483471 32.8191699,14.3637397 C32.4702542,14.2791322 32.1213385,14.2133264 31.7629926,14.1569215 C31.6969816,14.1475207 31.6404006,14.1381198 31.5743896,14.128719 C30.7728265,11.5716942 28.4718689,10.5 28.4718689,10.5 C25.8974369,12.126343 25.4164991,14.401343 25.4164991,14.401343 C25.4164991,14.401343 25.4070689,14.4483471 25.3882086,14.5329545 C25.2467563,14.5705579 25.105304,14.617562 24.9638517,14.6551653 C24.7658185,14.7115702 24.5677852,14.7867769 24.3791822,14.8619835 C24.1811489,14.9371901 23.9925459,15.0123967 23.7945126,15.0970041 C23.4078763,15.266219 23.02124,15.4542355 22.6440339,15.6610537 C22.2762579,15.8678719 21.917912,16.0934917 21.5689963,16.3285124 C21.5218455,16.3097107 21.4746948,16.2909091 21.4746948,16.2909091 C17.9100966,14.9371901 14.7509951,16.5635331 14.7509951,16.5635331 C14.4586603,20.3426653 16.1749483,22.7210744 16.5144339,23.1535124 C16.4295625,23.3885331 16.3541212,23.6235537 16.27868,23.8585744 C16.0146357,24.7140496 15.8166025,25.5883264 15.6940105,26.5002066 C15.6751502,26.6318182 15.6562899,26.7634298 15.6468597,26.8950413 C12.3463058,28.5213843 11.375,31.839876 11.375,31.839876 C14.1191748,34.9891529 17.3254271,35.1865702 17.3254271,35.1865702 C17.3254271,35.1865702 17.3348572,35.1771694 17.3348572,35.1771694 C17.7403539,35.9010331 18.2118615,36.5872934 18.7399502,37.2359504 C18.9662739,37.5085744 19.1925975,37.7623967 19.4377815,38.016219 C18.4381852,40.8740702 19.5792339,43.2430785 19.5792339,43.2430785 C22.6346037,43.3558884 24.6432265,41.9081612 25.0675834,41.5791322 C25.3693483,41.6825413 25.6805434,41.7765496 25.9917385,41.8517562 C26.9347539,42.0961777 27.8966296,42.2371901 28.8585053,42.2747934 C29.0942591,42.2841942 29.3394431,42.293595 29.5751969,42.2841942 L29.6883588,42.2841942 L29.7638,42.2841942 L29.9146825,42.2841942 L30.0655649,42.2747934 L30.0655649,42.2841942 C31.5083785,44.3335744 34.0356597,44.625 34.0356597,44.625 C35.8368191,42.7354339 35.9405508,40.8552686 35.9405508,40.4510331 L35.9405508,40.4510331 C35.9405508,40.4510331 35.9405508,40.4416322 35.9405508,40.4228306 C35.9405508,40.3852273 35.9405508,40.3664256 35.9405508,40.3664256 L35.9405508,40.3664256 C35.9405508,40.3382231 35.9405508,40.3100207 35.9405508,40.2818182 C36.317757,40.018595 36.6761028,39.7365702 37.0155883,39.426343 C37.73228,38.777686 38.3641003,38.0350207 38.892189,37.2359504 C38.9393397,37.1607438 38.9864905,37.0855372 39.0336413,37.0103306 C41.0705545,37.1231405 42.513368,35.7506198 42.513368,35.7506198 C42.1738825,33.6354339 40.9668228,32.601343 40.7122086,32.4039256 L40.7122086,32.4039256 C40.7122086,32.4039256 40.7027785,32.3945248 40.6839182,32.385124 C40.6650579,32.3757231 40.6650579,32.3663223 40.6650579,32.3663223 C40.6650579,32.3663223 40.6650579,32.3663223 40.6650579,32.3663223 C40.6556277,32.3569215 40.6367674,32.3475207 40.6179071,32.3381198 C40.6273373,32.2065083 40.6367674,32.0842975 40.6461976,31.952686 C40.6650579,31.7270661 40.6650579,31.4920455 40.6650579,31.2664256 L40.6650579,31.0972107 L40.6650579,31.0126033 L40.6650579,30.9655992 C40.6650579,30.9091942 40.6650579,30.9279959 40.6650579,30.9091942 L40.6556277,30.7681818 L40.6461976,30.5801653 C40.6461976,30.5143595 40.6367674,30.4579545 40.6273373,30.4015496 C40.6179071,30.3451446 40.6179071,30.2793388 40.608477,30.2229339 L40.5896166,30.0443182 L40.5613262,29.8657025 C40.5236056,29.6306818 40.485885,29.405062 40.429304,29.1700413 C40.2124105,28.2581612 39.8540646,27.3932851 39.3919871,26.6130165 C38.9204794,25.8327479 38.3358099,25.1464876 37.666269,24.5636364 C37.0061582,23.9807851 36.261176,23.5107438 35.4879034,23.1629132 C34.7052006,22.8150826 33.8942074,22.5894628 33.0832142,22.4860537 C32.6777176,22.4296488 32.2722209,22.4108471 31.8667243,22.4202479 L31.7158419,22.4202479 L31.6781213,22.4202479 C31.6686911,22.4202479 31.6215403,22.4202479 31.6309705,22.4202479 L31.5649594,22.4202479 L31.4140769,22.4296488 C31.357496,22.4296488 31.3009151,22.4390496 31.2537643,22.4390496 C31.0463009,22.4578512 30.8388376,22.4860537 30.6408043,22.523657 C29.8298111,22.6740702 29.0659686,22.9654959 28.3964277,23.3697314 C27.7268868,23.7739669 27.1422172,24.2722107 26.6707096,24.8362603 C26.1992019,25.4003099 25.8314259,26.0301653 25.5768117,26.6788223 C25.3221976,27.3274793 25.1807452,28.0043388 25.1430246,28.6529959 C25.1335945,28.8128099 25.1335945,28.9820248 25.1335945,29.1418388 C25.1335945,29.1794421 25.1335945,29.2264463 25.1335945,29.2640496 L25.1430246,29.3956612 C25.1524548,29.4708678 25.1524548,29.5554752 25.1618849,29.6306818 C25.1901754,29.9597107 25.2561865,30.2793388 25.3410579,30.5801653 C25.5202308,31.191219 25.8031354,31.7458678 26.1520511,32.2159091 C26.5009668,32.6859504 26.9253237,33.0713843 27.3685409,33.3816116 C27.8117582,33.682438 28.292696,33.898657 28.7642037,34.0396694 C29.2357114,34.1806818 29.7072191,34.2370868 30.1504363,34.2370868 C30.2070173,34.2370868 30.2635982,34.2370868 30.3107489,34.2370868 C30.3390394,34.2370868 30.3673299,34.2370868 30.3956203,34.2370868 C30.4239108,34.2370868 30.4522013,34.2370868 30.4804917,34.227686 C30.5276425,34.227686 30.5747933,34.2182851 30.621944,34.2182851 C30.6313742,34.2182851 30.6502345,34.2182851 30.6596646,34.2088843 L30.7068154,34.1994835 C30.7351059,34.1994835 30.7633963,34.1900826 30.7916868,34.1900826 C30.8482677,34.1806818 30.8954185,34.171281 30.9519994,34.1618802 C31.0085803,34.1524793 31.0557311,34.1430785 31.1028819,34.1242769 C31.2066136,34.1054752 31.3009151,34.0678719 31.3952166,34.0396694 C31.5838197,33.9738636 31.7724228,33.898657 31.9327354,33.8140496 C32.1024782,33.7294421 32.2533606,33.6260331 32.4042431,33.5320248 C32.4419637,33.5038223 32.4891145,33.4756198 32.5268351,33.4380165 C32.6777176,33.3158058 32.706008,33.090186 32.583416,32.9397727 C32.4796843,32.8081612 32.2910813,32.7705579 32.1401988,32.8551653 C32.1024782,32.8739669 32.0647576,32.8927686 32.0270369,32.9115702 C31.8950148,32.977376 31.7629926,33.033781 31.6215403,33.0807851 C31.480088,33.1277893 31.3292056,33.1653926 31.1783231,33.193595 C31.1028819,33.2029959 31.0274406,33.2123967 30.9425693,33.2217975 C30.9048486,33.2217975 30.867128,33.2311983 30.8199773,33.2311983 C30.7822566,33.2311983 30.7351059,33.2311983 30.7068154,33.2311983 C30.6690948,33.2311983 30.6313742,33.2311983 30.5936536,33.2311983 C30.5465028,33.2311983 30.499352,33.2311983 30.4522013,33.2217975 C30.4522013,33.2217975 30.4239108,33.2217975 30.4427711,33.2217975 L30.4239108,33.2217975 L30.3956203,33.2217975 C30.37676,33.2217975 30.3484696,33.2217975 30.3296093,33.2123967 C30.2824585,33.2029959 30.2447379,33.2029959 30.1975871,33.193595 C29.8486714,33.1465909 29.4997557,33.0431818 29.1697003,32.8927686 C28.8302148,32.7423554 28.5095896,32.5355372 28.2172548,32.272314 C27.92492,32.0090909 27.6703059,31.6988636 27.4722726,31.3416322 C27.2742394,30.9844008 27.1327871,30.5895661 27.066776,30.1759298 C27.0384856,29.9691116 27.0196252,29.7528926 27.0290554,29.5460744 C27.0290554,29.4896694 27.0384856,29.4332645 27.0384856,29.3768595 C27.0384856,29.3956612 27.0384856,29.3674587 27.0384856,29.3674587 L27.0384856,29.348657 L27.0384856,29.3016529 C27.0384856,29.2734504 27.0479157,29.2452479 27.0479157,29.2170455 C27.0573459,29.1042355 27.0762062,28.9914256 27.0950665,28.8786157 C27.2553791,27.9761364 27.7080265,27.0924587 28.4058579,26.425 C28.5850308,26.2557851 28.7736339,26.1053719 28.9716671,25.9643595 C29.1697003,25.8233471 29.3865939,25.7011364 29.6129176,25.5977273 C29.8392413,25.4943182 30.0655649,25.4097107 30.3107489,25.343905 C30.5465028,25.2780992 30.7916868,25.2404959 31.0463009,25.2122934 C31.1688929,25.2028926 31.2914849,25.1934917 31.4235071,25.1934917 C31.4612277,25.1934917 31.480088,25.1934917 31.5083785,25.1934917 L31.6121102,25.1934917 L31.6781213,25.1934917 C31.7064117,25.1934917 31.6781213,25.1934917 31.6875514,25.1934917 L31.7158419,25.1934917 L31.8195736,25.2028926 C32.093048,25.2216942 32.3570923,25.2592975 32.6211366,25.3251033 C33.1492253,25.4379132 33.6678837,25.6353306 34.1488216,25.8985537 C35.1106973,26.4344008 35.9311206,27.2616736 36.4309188,28.2581612 C36.685533,28.756405 36.8647059,29.2922521 36.9495773,29.8469008 C36.9684376,29.9879132 36.9872979,30.1289256 36.996728,30.269938 L37.0061582,30.3733471 L37.0155883,30.4767562 C37.0155883,30.5143595 37.0155883,30.5519628 37.0155883,30.5801653 C37.0155883,30.6177686 37.0155883,30.6553719 37.0155883,30.6835744 L37.0155883,30.7775826 L37.0155883,30.8809917 C37.0155883,30.9467975 37.0061582,31.0596074 37.0061582,31.1254132 C36.996728,31.2758264 36.9778677,31.4356405 36.9590074,31.5860537 C36.9401471,31.7364669 36.9118566,31.8868802 36.8835662,32.0372934 C36.8552757,32.1877066 36.8175551,32.3381198 36.7798345,32.4791322 C36.7043933,32.7705579 36.6100917,33.0619835 36.4969299,33.3534091 C36.2706062,33.9174587 35.9688413,34.4627066 35.6104954,34.9609504 C34.8843736,35.957438 33.8942074,36.7659091 32.7625889,37.2829545 C32.1967797,37.5367769 31.60268,37.7247934 30.98972,37.8188017 C30.6879551,37.8752066 30.37676,37.9034091 30.0655649,37.9128099 L30.008984,37.9128099 L29.9618333,37.9128099 L29.8581016,37.9128099 L29.7072191,37.9128099 L29.6317779,37.9128099 C29.6694985,37.9128099 29.6223477,37.9128099 29.6223477,37.9128099 L29.5940573,37.9128099 C29.4243145,37.9128099 29.2640019,37.9034091 29.0942591,37.8846074 C28.4341483,37.8376033 27.7834677,37.7153926 27.1422172,37.5367769 C26.5103969,37.3581612 25.8974369,37.1043388 25.3127674,36.8035124 C24.1528585,36.1830579 23.1061114,35.3369835 22.2951182,34.3122934 C21.8896216,33.8046488 21.5312757,33.25 21.2389409,32.6765496 C20.9466062,32.1030992 20.7108523,31.4920455 20.5411095,30.8809917 C20.3713668,30.2605372 20.2676351,29.6306818 20.2204843,28.9914256 L20.2110542,28.8692149 L20.2110542,28.8410124 L20.2110542,28.8128099 L20.2110542,28.756405 L20.2110542,28.6529959 L20.2110542,28.6247934 L20.2110542,28.5871901 L20.2110542,28.5119835 L20.2110542,28.3615702 L20.2110542,28.3333678 C20.2110542,28.3333678 20.2110542,28.3427686 20.2110542,28.3239669 L20.2110542,28.267562 C20.2110542,28.1923554 20.2110542,28.1077479 20.2110542,28.0325413 C20.2204843,27.722314 20.2487748,27.3932851 20.2864954,27.073657 C20.324216,26.7540289 20.3807969,26.425 20.446808,26.1053719 C20.5128191,25.7857438 20.5882603,25.4661157 20.6825619,25.1464876 C20.8617348,24.5166322 21.0880585,23.9055785 21.3521028,23.3321281 C21.8896216,22.1852273 22.5874529,21.1605372 23.4267366,20.3426653 C23.6342,20.1358471 23.8510936,19.9478306 24.0774172,19.759814 C24.3037409,19.5811983 24.5394948,19.4119835 24.7846788,19.2521694 C25.0204326,19.0923554 25.2750468,18.951343 25.5296609,18.8197314 C25.6522529,18.7539256 25.7842751,18.6881198 25.9162972,18.6317149 C25.9823083,18.6035124 26.0483194,18.5753099 26.1143305,18.5471074 C26.1803416,18.518905 26.2463526,18.4907025 26.3123637,18.4625 C26.576408,18.3496901 26.8498825,18.2556818 27.1327871,18.1710744 C27.1987982,18.1522727 27.2742394,18.1334711 27.3402505,18.1052686 C27.4062616,18.0864669 27.4817028,18.0676653 27.5477139,18.0488636 C27.6891662,18.0112603 27.8306185,17.973657 27.9720708,17.9454545 C28.0380819,17.9266529 28.1135231,17.9172521 28.1889643,17.8984504 C28.2644056,17.8796488 28.3304166,17.8702479 28.4058579,17.8514463 C28.4812991,17.8420455 28.5473102,17.8232438 28.6227514,17.813843 L28.7264831,17.7950413 L28.8396449,17.7762397 C28.9150862,17.7668388 28.9810973,17.757438 29.0565385,17.7480372 C29.1414099,17.7386364 29.2168511,17.7292355 29.3017225,17.7198347 C29.3677336,17.7104339 29.4808954,17.7010331 29.5469065,17.6916322 C29.5940573,17.6822314 29.6506382,17.6822314 29.6977889,17.6728306 L29.8015206,17.6634298 L29.8486714,17.6540289 L29.9052523,17.6540289 C29.9901237,17.6446281 30.0655649,17.6446281 30.1504363,17.6352273 L30.2730283,17.6258264 C30.2730283,17.6258264 30.3201791,17.6258264 30.2824585,17.6258264 L30.3107489,17.6258264 L30.3673299,17.6258264 C30.4333409,17.6258264 30.5087822,17.6164256 30.5747933,17.6164256 C30.8482677,17.6070248 31.1311723,17.6070248 31.4046468,17.6164256 C31.9515957,17.6352273 32.4891145,17.7010331 33.0077729,17.7950413 C34.05452,17.9924587 35.035256,18.3214876 35.9311206,18.7633264 C36.8269853,19.1957645 37.6191182,19.7316116 38.3169496,20.3144628 C38.3641003,20.3520661 38.401821,20.3896694 38.4489717,20.4272727 C38.4866923,20.464876 38.5338431,20.5024793 38.5715637,20.5400826 C38.6564351,20.6152893 38.7318763,20.6904959 38.8167477,20.7657025 C38.9016191,20.8409091 38.9770603,20.9161157 39.0525016,20.9913223 C39.1279428,21.0665289 39.203384,21.1417355 39.2788253,21.226343 C39.57116,21.5365702 39.8446345,21.8467975 40.0898185,22.1664256 C40.5801865,22.796281 40.976253,23.4355372 41.287448,24.0371901 C41.3063083,24.0747934 41.3251686,24.1123967 41.344029,24.15 C41.3628893,24.1876033 41.3817496,24.2252066 41.4006099,24.2628099 C41.4383305,24.3380165 41.4760511,24.4132231 41.5043416,24.4884298 C41.5420622,24.5636364 41.5703526,24.6294421 41.6080733,24.7046488 C41.6363637,24.7798554 41.6740843,24.8456612 41.7023748,24.9208678 C41.8155366,25.2028926 41.9286985,25.4755165 42.0135699,25.7293388 C42.1550222,26.1429752 42.2587539,26.5096074 42.3436253,26.8292355 C42.3719157,26.9608471 42.4945077,27.0454545 42.6265299,27.0266529 C42.7679822,27.0172521 42.8717139,26.9044421 42.8717139,26.7634298 C42.881144,26.425 42.8717139,26.0207645 42.8245631,25.560124 Z" id="路径" fill="#FFFFFF" fill-rule="nonzero"></path>
                    </g>
                </g>
            </g>
        </g>
    </g>
</svg>