<?xml version="1.0" encoding="UTF-8"?>
<svg width="56px" height="56px" viewBox="0 0 56 56" version="1.1" xmlns="http://www.w3.org/2000/svg" xmlns:xlink="http://www.w3.org/1999/xlink">
    <title>ilog</title>
    <defs>
        <linearGradient x1="5.99872076%" y1="3.796875%" x2="100%" y2="100%" id="linearGradient-1">
            <stop stop-color="#AC5DD9" offset="0%"></stop>
            <stop stop-color="#6600CC" offset="100%"></stop>
        </linearGradient>
    </defs>
    <g id="页面-1" stroke="none" stroke-width="1" fill="none" fill-rule="evenodd">
        <g id="快捷应用" transform="translate(-578.000000, -714.000000)">
            <g id="编组" transform="translate(232.000000, 118.000000)">
                <g id="编组-6" transform="translate(24.000000, 550.000000)">
                    <g id="ilog" transform="translate(322.000000, 46.000000)">
                        <rect id="矩形备份-24" fill="url(#linearGradient-1)" x="0" y="0" width="56" height="56" rx="20"></rect>
                        <path d="M11.627,19.712 C12.089,19.712 12.488,19.859 12.803,20.153 C13.097,20.447 13.265,20.825 13.265,21.287 C13.265,21.749 13.097,22.148 12.782,22.442 C12.467,22.736 12.089,22.883 11.627,22.883 C11.165,22.883 10.787,22.736 10.472,22.442 C10.157,22.127 10.01,21.749 10.01,21.287 C10.01,20.825 10.157,20.447 10.472,20.153 C10.787,19.859 11.165,19.712 11.627,19.712 Z M10.43,24.143 L12.824,24.143 L12.824,35 L10.43,35 L10.43,24.143 Z M16.345,19.712 L18.739,19.712 L18.739,35 L16.345,35 L16.345,19.712 Z M26.859,23.849 C28.497,23.849 29.82,24.374 30.828,25.466 C31.815,26.537 32.319,27.902 32.319,29.582 C32.319,31.241 31.815,32.606 30.849,33.656 C29.841,34.748 28.497,35.294 26.859,35.294 C25.2,35.294 23.877,34.748 22.869,33.656 C21.882,32.606 21.399,31.241 21.399,29.582 C21.399,27.902 21.882,26.537 22.89,25.466 C23.877,24.374 25.2,23.849 26.859,23.849 Z M26.859,25.802 C25.851,25.802 25.095,26.18 24.549,26.978 C24.087,27.65 23.856,28.532 23.856,29.582 C23.856,30.632 24.087,31.493 24.549,32.165 C25.095,32.942 25.851,33.341 26.859,33.341 C27.846,33.341 28.623,32.942 29.169,32.165 C29.631,31.472 29.883,30.611 29.883,29.582 C29.883,28.532 29.631,27.65 29.169,26.978 C28.623,26.18 27.846,25.802 26.859,25.802 Z M39.284,23.849 C40.628,23.849 41.699,24.374 42.497,25.466 L42.497,24.143 L44.891,24.143 L44.891,34.307 C44.891,37.73 43.19,39.452 39.788,39.452 C38.255,39.452 37.1,39.158 36.302,38.612 C35.504,38.024 35,37.142 34.79,35.924 L37.184,35.924 C37.31,36.533 37.562,36.953 37.961,37.205 C38.339,37.436 38.948,37.562 39.788,37.562 C41.594,37.562 42.497,36.596 42.497,34.664 L42.497,33.068 C41.699,34.181 40.628,34.748 39.284,34.748 C37.814,34.748 36.617,34.244 35.714,33.278 C34.79,32.291 34.349,30.968 34.349,29.33 C34.349,27.692 34.79,26.369 35.714,25.361 C36.617,24.353 37.814,23.849 39.284,23.849 Z M39.662,25.781 C38.759,25.781 38.066,26.096 37.562,26.726 C37.058,27.335 36.806,28.196 36.806,29.33 C36.806,30.359 36.995,31.157 37.394,31.745 C37.856,32.438 38.591,32.795 39.641,32.795 C40.565,32.795 41.279,32.48 41.783,31.892 C42.266,31.262 42.518,30.422 42.518,29.33 C42.518,28.217 42.266,27.356 41.783,26.726 C41.279,26.096 40.565,25.781 39.662,25.781 Z" fill="#FFFFFF" fill-rule="nonzero"></path>
                    </g>
                </g>
            </g>
        </g>
    </g>
</svg>