<?xml version="1.0" encoding="UTF-8"?>
<svg width="56px" height="56px" viewBox="0 0 56 56" version="1.1" xmlns="http://www.w3.org/2000/svg" xmlns:xlink="http://www.w3.org/1999/xlink">
    <title>jenkins</title>
    <defs>
        <linearGradient x1="5.99872076%" y1="3.796875%" x2="100%" y2="100%" id="linearGradient-1">
            <stop stop-color="#FF777A" offset="0%"></stop>
            <stop stop-color="#FE393B" offset="100%"></stop>
        </linearGradient>
    </defs>
    <g id="页面-1" stroke="none" stroke-width="1" fill="none" fill-rule="evenodd">
        <g id="快捷应用" transform="translate(-578.000000, -536.000000)">
            <g id="编组" transform="translate(232.000000, 118.000000)">
                <g id="编组-5" transform="translate(24.000000, 372.000000)">
                    <g id="jenkins" transform="translate(322.000000, 46.000000)">
                        <rect id="矩形备份-19" fill="url(#linearGradient-1)" x="0" y="0" width="56" height="56" rx="20"></rect>
                        <g transform="translate(12.250000, 7.000000)">
                            <path d="M30.9938276,20.8888448 C30.9938276,29.4409138 24.1930862,36.3759828 15.8061207,36.3759828 C7.41951724,36.3759828 0.618775862,29.4412759 0.618775862,20.8888448 C0.618775862,12.3367759 7.41951724,5.4017069 15.8061207,5.4017069 C24.1930862,5.4017069 30.9938276,12.3364138 30.9938276,20.8888448" id="路径" fill="#FFFFFF" fill-rule="nonzero"></path>
                            <path d="M1.23175862,24.7235172 C1.23175862,24.7235172 0.132155172,8.57487931 15.0638793,8.11215517 L14.0232931,6.38255172 L5.90606897,9.09336207 L3.59172414,11.7476897 L1.56667241,15.6135 L0.408051724,20.0984483 L0.753827586,23.0978276" id="路径" fill="#FFFFFF" fill-rule="nonzero"></path>
                            <path d="M5.39736207,10.3240345 C2.61919233,13.1607505 1.06920963,16.9769829 1.08250034,20.9475 C1.069781,24.9172657 2.6197213,28.7326134 5.39736207,31.5687931 C8.13089996,34.3778306 11.883668,35.9628985 15.8032241,35.9639483 C19.7230846,35.9629988 23.4761579,34.3777817 26.2098103,31.568431 C28.9872305,28.7322824 30.5370308,24.9170891 30.5243113,20.9475 C30.5376974,16.9770342 28.9878476,13.1608089 26.2098103,10.3240345 C23.4760794,7.51501696 19.7232625,5.929853 15.8035862,5.92851724 C11.8839099,5.929853 8.13109298,7.51501696 5.39736207,10.3240345 L5.39736207,10.3240345 Z M4.72210345,32.2357241 C1.77306975,29.2232767 0.126595917,25.1721786 0.137887995,20.9565517 C0.126405695,16.7406743 1.77289363,12.6892814 4.72210345,9.67665517 C7.63295407,6.68696442 11.6280048,4.99979384 15.8006897,4.998 C19.9731959,4.99979633 23.9680901,6.68682542 26.8789138,9.6762931 C29.8287421,12.688718 31.4755491,16.740386 31.4638631,20.9565517 C31.4762289,25.1720054 29.8306322,29.2233152 26.8821724,32.2360862 C23.9712199,35.2254095 19.9764407,36.9125205 15.8039483,36.9147414 C11.630325,36.9133992 7.63420705,35.226219 4.72246552,32.2360862 L4.72210345,32.2357241 Z" id="形状" fill="#231F20" fill-rule="nonzero"></path>
                            <polyline id="路径" fill="#F0D6B7" fill-rule="nonzero" points="22.1991724 20.9728448 19.8844655 21.3175345 16.7598103 21.6625862 14.7347586 21.7212414 12.7658276 21.6625862 11.2498448 21.2056552 9.91960345 19.7646207 8.8877069 16.8188276 8.6567069 16.1852069 7.26744828 15.7228448 6.46872414 14.3969483 5.88941379 12.4935517 6.52484483 10.8117414 8.02960345 10.2928966 9.2447069 10.8703966 9.82401724 12.1401724 10.5188276 12.0253966 10.7494655 11.7451552 10.5188276 10.4192586 10.4598103 8.73744828 10.8055862 6.43034483 10.8055862 5.11277586 11.8602931 3.43096552 13.7108276 2.10506897 16.9509828 0.720517241 20.5311207 1.24732759 23.6557759 3.48998276 25.1015172 5.79672414 26.0269655 7.47853448 26.2576034 11.6329138 25.5627931 15.2097931 24.2886724 18.3829655 23.073931 20.0647759"></polyline>
                            <polyline id="路径" fill="#335061" fill-rule="nonzero" points="20.2302414 30.9518276 11.9533448 31.2968793 11.9533448 32.681431 12.6561207 37.5280862 12.3103448 37.9317931 6.52231034 35.9693793 6.11715517 35.2771034 5.53784483 28.7598621 4.20760345 24.8357586 3.92627586 23.9132069 8.53903448 20.742931 9.98441379 20.165431 11.2494828 21.7241379 12.3494483 22.7053448 13.6232069 23.1090517 14.2025172 23.2828448 14.8976897 26.2818621 15.4176207 26.9154828 16.7482241 26.4531207 15.8231379 28.2413793 20.8573448 30.6071379 20.2219138 30.9518276"></polyline>
                            <polyline id="路径" fill="#6D6B6D" fill-rule="nonzero" points="6.51362069 10.8229655 8.01837931 10.3041207 9.23348276 10.8816207 9.8127931 12.1513966 10.5076034 12.0366207 10.6817586 11.3443448 10.3359828 10.0184483 10.6871897 6.84237931 10.4062241 5.11277586 11.4468103 3.90201724 13.6967069 2.11339655 13.0612759 1.24732759 9.87181034 2.80313793 8.54156897 3.84010345 7.79063793 5.45493103 6.62912069 7.00784483 6.28298276 8.85222414 6.51362069 10.8146379"></polyline>
                            <path d="M8.88734483,5.4017069 C8.88734483,5.4017069 9.75631034,3.26839655 13.2271034,2.22853448 C16.6978966,1.18867241 13.4016207,1.47724138 13.4016207,1.47724138 L9.64117241,2.91827586 L8.1957931,4.35894828 L7.56,5.51394828 L8.89024138,5.39881034 M7.15231034,10.4192586 C7.15231034,10.4192586 5.9372069,6.38255172 10.5666207,5.80541379 L10.3921034,5.11277586 L7.20843103,5.86406897 L6.28298276,8.86344828 L6.51362069,10.8258621 L7.14941379,10.4221552" id="形状" fill="#DCD9D8" fill-rule="nonzero"></path>
                            <path d="M8.99994828,15.7815 L9.75667241,15.0501207 C9.975,15.0899483 10.1390172,15.272069 10.1560345,15.492931 C10.2150517,15.8966379 10.3866724,19.5292759 12.8755345,21.4913276 C13.1036379,21.6709138 11.025,21.2110862 11.025,21.2110862 L9.17446552,18.3268448 M19.650931,14.6855172 C19.650931,14.6855172 19.7859828,12.9363621 20.2584828,13.0706897 C20.5315755,13.1474389 20.7230208,13.3928702 20.7309828,13.676431 C20.7309828,13.676431 19.5832241,14.4165 19.650931,14.6855172 M24.4548621,8.28305172 C24.4548621,8.28305172 23.5011724,8.48508621 23.4139138,9.32037931 C23.3270172,10.1556724 24.4548621,9.49417241 24.6290172,9.43515517 M17.4517241,8.34206897 C17.4517241,8.34206897 16.1772414,8.51586207 16.1772414,9.32327586 C16.1772414,10.1306897 17.6229828,10.074569 18.0281379,9.72698276 M9.58215517,12.0898448 C9.58215517,12.0898448 7.38294828,10.7639483 7.15231034,12.0308276 C6.92167241,13.298069 6.39848276,14.2231552 7.49808621,15.5490517 L6.74715517,15.3191379 L6.05234483,13.5305172 L5.8217069,11.8012759 L7.15231034,10.4163621 L8.6567069,10.5311379 L9.52603448,11.2241379 L9.58541379,12.0902069 M10.6231034,8.45684483 C10.6231034,8.45684483 11.6072069,3.38063793 16.5827586,2.39943103 C20.6802931,1.59201724 22.832069,2.57322414 23.6420172,3.49541379 C23.6420172,3.49541379 19.9854828,-0.829862069 16.5237414,0.496034483 C13.0612759,1.82193103 10.5047069,4.2467069 10.5640862,5.80251724 C10.6618448,8.45431034 10.6227414,8.45684483 10.6227414,8.45684483 M24.0497069,4.07291379 C24.0497069,4.07291379 22.3624655,4.01389655 22.3143103,5.51394828 C22.3197414,5.67434483 22.3592069,5.83184483 22.4298103,5.97631034 C22.4298103,5.97631034 23.7600517,4.47662069 24.57,5.28403448" id="形状" fill="#F7E4CD" fill-rule="nonzero"></path>
                            <path d="M16.7007931,6.13344828 C16.7007931,6.13344828 16.4194655,3.83177586 14.4505345,5.16889655 C13.1764138,6.03496552 13.2948103,7.24608621 13.5254483,7.476 C13.7560862,7.70591379 13.6941724,8.17117241 13.8712241,7.85146552 C14.0486379,7.53212069 13.9892586,6.4947931 14.6250517,6.20622414 C15.2604828,5.9172931 16.3122931,5.59505172 16.7091207,6.13018966" id="路径" fill="#F7E4CD" fill-rule="nonzero"></path>
                            <path d="M11.2498448,21.7241379 L5.81048276,24.1460172 C5.81048276,24.1460172 8.06074138,33.0855 6.91044828,35.8546034 L6.10013793,35.5743621 L6.04112069,32.1712759 L4.53672414,25.7242759 L3.90093103,23.9356552 L9.57093103,20.1292241 L11.2581724,21.7440517 M11.8125,26.6689138 L12.5829828,27.6077586 L12.5829828,31.0698621 L11.6578966,31.0698621 C11.6578966,31.0698621 11.5423966,28.6476207 11.5423966,28.3590517 C11.5423966,28.0704828 11.6578966,27.0331552 11.6578966,27.0331552 M11.8378448,31.5854483 L9.23348276,31.7005862 L9.98731034,32.219069 L11.8374828,32.4993103" id="形状" fill="#49728B" fill-rule="nonzero"></path>
                            <polyline id="路径" fill="#335061" fill-rule="nonzero" points="20.7505345 31.0108448 22.8910862 30.9518276 23.4113793 36.2583103 21.2118103 36.5385517 20.7476379 31.0025172"></polyline>
                            <path d="M21.3298448,31.0108448 L24.57,30.8370517 C24.57,30.8370517 25.9002414,27.4929828 25.9002414,27.3191897 C25.9002414,27.1453966 27.0588621,22.475431 27.0588621,22.475431 L24.4548621,19.7646207 L23.9342069,19.3022586 L22.5449483,20.6868103 L22.5449483,26.0523103 L21.3298448,31.0137414" id="路径" fill="#335061" fill-rule="nonzero"></path>
                            <path d="M22.7813793,30.6071379 L20.7563276,31.0108448 L21.0376552,32.6256724 C21.7885862,32.9703621 23.0623448,32.0481724 23.0623448,32.0481724 M22.8346034,20.5130172 L26.8847069,23.5123966 L26.9998448,22.1278448 L23.9342069,19.3022586 L22.8346034,20.5130172" id="形状" fill="#49728B" fill-rule="nonzero"></path>
                            <polyline id="路径" fill="#FFFFFF" fill-rule="nonzero" points="13.8458793 42.3718448 12.6561207 37.5280862 12.0601552 33.9512069 11.9616724 31.2968793 17.3840172 31.0166379 20.7592241 31.0166379 20.4525517 37.0740517 20.9728448 41.7469138 20.9138276 42.6129828 16.5146897 42.9576724 13.8516724 42.3801724"></polyline>
                            <path d="M19.9996034,30.9518276 C19.9996034,30.9518276 19.7182759,36.9505862 20.5789138,41.2201034 C19.2611086,41.9706811 17.803268,42.4427849 16.2956379,42.6071897 L21.1556897,42.4333966 L21.735,42.0887069 L21.0401897,32.6282069 L20.8660345,30.6100345" id="路径" fill="#DCD9D8" fill-rule="nonzero"></path>
                            <polyline id="路径" fill="#FFFFFF" fill-rule="nonzero" points="23.5127586 35.7984828 25.7626552 35.1648621 30.045931 34.9353103 30.6817241 32.9728966 29.531431 29.5672759 28.2008276 29.3934828 26.3506552 29.9709828 24.57 30.8341552 23.6278966 30.6603621 22.8936207 30.9406034"></polyline>
                            <path d="M23.4703966,34.6438448 C23.4703966,34.6438448 24.9751552,33.9512069 25.2057931,34.0102241 L24.57,30.8337931 L25.320931,30.5535517 C25.320931,30.5535517 25.8412241,33.552931 25.8412241,33.8976207 C25.8412241,33.8976207 29.0813793,34.0714138 29.3710345,34.0714138 C29.7843114,33.2309103 29.9640144,32.2947538 29.8913276,31.3609655 L30.5267586,33.2053448 L30.5857759,34.2423103 L29.6606897,35.6275862 L28.6201034,35.8575 L26.8847069,35.7984828 L26.3053966,35.0388621 L24.2803448,35.3191034 L23.6445517,35.5490172" id="路径" fill="#DCD9D8" fill-rule="nonzero"></path>
                            <path d="M21.1976897,30.5539138 L19.923931,27.3246207 L18.5933276,25.4215862 C18.5933276,25.4215862 18.8746552,24.6141724 19.2881379,24.6141724 L20.6183793,24.6141724 L21.8925,25.0765345 L21.7773621,27.2098448 L21.1980517,30.5539138" id="路径" fill="#FFFFFF" fill-rule="nonzero"></path>
                            <path d="M21.4453448,29.4525 C21.4453448,29.4525 19.8254483,26.3379828 19.8254483,25.8752586 C19.8254483,25.8752586 20.1064138,25.1833448 20.5198966,25.3571379 C20.9333793,25.530931 21.7943793,25.9907586 21.7943793,25.9907586 L21.7943793,24.8944138 L19.8254483,24.4907069 L18.4948448,24.6645 L20.7451034,29.9709828 L21.2089138,30.0296379" id="路径" fill="#DCD9D8" fill-rule="nonzero"></path>
                            <polyline id="路径" fill="#FFFFFF" fill-rule="nonzero" points="14.369069 21.8389138 12.7658276 21.6651207 11.2498448 21.2052931 11.2498448 21.7241379 11.9841207 22.5315517 14.2988276 23.5685172"></polyline>
                            <path d="M11.7817241,22.0127069 C11.7817241,22.0127069 13.5757759,22.764 14.1554483,22.5902069 L14.211569,23.2828448 L12.5916724,22.9377931 L11.6068448,22.2455172 L11.7817241,22.0156034" id="路径" fill="#DCD9D8" fill-rule="nonzero"></path>
                            <path d="M23.504069,24.8046207 C22.6103291,24.7908827 21.7215715,24.6685721 20.8573448,24.4403793 C20.910931,24.123569 20.8124483,23.8125517 20.8913793,23.5822759 C21.1078966,23.4283966 21.4706897,23.4283966 21.7965517,23.3918276 C21.4823871,23.245168 21.128754,23.2057341 20.79,23.2795862 C20.7659226,23.0948383 20.7098059,22.9157057 20.6241724,22.7502414 C21.1864655,22.554 22.4801379,21.2672069 23.2115172,21.693 C23.5601897,21.8950345 23.7093621,23.0554655 23.7376034,23.6163103 C23.786838,24.0263095 23.7050924,24.4413745 23.504069,24.8020862" id="路径" fill="#D33833" fill-rule="nonzero"></path>
                            <path d="M23.504069,24.8046207 C22.6103291,24.7908827 21.7215715,24.6685721 20.8573448,24.4403793 C20.910931,24.123569 20.8124483,23.8125517 20.8913793,23.5822759 C21.1078966,23.4283966 21.4706897,23.4283966 21.7965517,23.3918276 C21.4823871,23.245168 21.128754,23.2057341 20.79,23.2795862 C20.7659226,23.0948383 20.7098059,22.9157057 20.6241724,22.7502414 C21.1864655,22.554 22.4801379,21.2672069 23.2115172,21.693 C23.5601897,21.8950345 23.7093621,23.0554655 23.7376034,23.6163103 C23.7873852,24.0271435 23.7056227,24.4431816 23.504069,24.8046207 L23.504069,24.8046207 Z" id="路径" stroke="#D33833" stroke-width="0.724137931"></path>
                            <path d="M18.8098448,23.2042759 L18.8098448,23.4287586 C18.5035345,23.630431 18.0085862,23.6275345 17.6848966,23.7955345 C18.1102436,23.8093106 18.527636,23.9145232 18.9086897,24.1040172 C18.9086897,24.2908448 18.9010862,24.4776724 18.8858793,24.6645 C18.3235862,25.0482931 17.8116207,25.6203621 17.1479483,25.9791724 C16.8354828,26.150431 15.7416724,26.5874483 15.4042241,26.5088793 C15.2159483,26.4643448 15.198569,26.2286379 15.1228966,26.0128448 C14.9625,25.5421552 14.5942759,24.7933966 14.5602414,24.087 C14.5182414,23.1926897 14.4280862,21.6962586 15.4038621,21.8783793 C16.2029725,22.0490968 16.9738717,22.3321499 17.6935862,22.7191034 C18.0618103,22.9211379 18.2757931,23.168069 18.8351897,23.2126034" id="路径" fill="#D33833" fill-rule="nonzero"></path>
                            <path d="M18.8098448,23.2042759 L18.8098448,23.4287586 C18.5035345,23.630431 18.0085862,23.6275345 17.6848966,23.7955345 C18.1102436,23.8093106 18.527636,23.9145232 18.9086897,24.1040172 C18.9086897,24.2908448 18.9010862,24.4776724 18.8858793,24.6645 C18.3235862,25.0482931 17.8116207,25.6203621 17.1479483,25.9791724 C16.8354828,26.150431 15.7416724,26.5874483 15.4042241,26.5088793 C15.2159483,26.4643448 15.198569,26.2286379 15.1228966,26.0128448 C14.9625,25.5421552 14.5942759,24.7933966 14.5602414,24.087 C14.5182414,23.1926897 14.4280862,21.6962586 15.4038621,21.8783793 C16.2029725,22.0490968 16.9738717,22.3321499 17.6935862,22.7191034 C18.0364655,22.9128103 18.2504483,23.1622759 18.8098448,23.2042759 L18.8098448,23.2042759 Z" id="路径" stroke="#D33833" stroke-width="0.724137931"></path>
                            <path d="M19.367069,24.2720172 C19.2823448,23.7843103 19.1813276,23.6470862 19.2207931,23.220931 C20.5227931,22.3548621 20.7675517,24.7093966 19.3667069,24.2720172" id="路径" fill="#D33833" fill-rule="nonzero"></path>
                            <path d="M19.367069,24.2720172 C19.2823448,23.7843103 19.1813276,23.6470862 19.2207931,23.220931 C20.5314828,22.3548621 20.7675517,24.7065 19.3667069,24.2720172 L19.367069,24.2720172 Z" id="路径" stroke="#D33833" stroke-width="0.724137931"></path>
                            <path d="M21.2541724,24.6673966 C21.2541724,24.6673966 20.8490172,24.0898966 21.1386724,23.9161034 C21.4283276,23.7423103 21.7179828,23.9161034 21.8925,23.6358621 C22.0670172,23.3556207 21.8925,23.1735 21.9515172,22.8284483 C22.0105345,22.4837586 22.3001897,22.4247414 22.5873103,22.3660862 C22.874069,22.307069 23.6869138,22.1922931 23.8020517,22.4808621 L23.4562759,21.4438966 L22.7614655,21.2139828 L20.5622586,22.4837586 L20.4467586,23.1173793 L20.4467586,24.3871552 M15.1873448,26.5678966 C15.1180601,25.6676924 15.0431103,24.7679332 14.9625,23.8686724 C14.8386724,22.5257586 15.2858276,22.7473448 16.4531379,22.7473448 C16.6305517,22.7473448 17.5502069,22.9602414 17.6175517,23.0920345 C17.9325517,23.7339828 17.088931,23.5909655 17.9803448,24.0757759 C18.7341724,24.4849138 20.0615172,23.8263103 19.7581034,22.9182414 C19.5890172,22.716569 18.8717586,22.8566897 18.6157759,22.722 L17.2601897,22.0213966 C16.6978966,21.7241379 15.356431,21.2896552 14.7293276,21.7045862 C13.1738793,22.7582069 14.8274483,25.3904483 15.3814138,26.4893276" id="形状" fill="#EF3D3A" fill-rule="nonzero"></path>
                            <path d="M16.7007931,6.13344828 C15.1228966,5.76594828 14.3382931,6.79205172 13.86,7.85436207 C13.4327586,7.75044828 13.6040172,7.17331034 13.7108276,6.87894828 C13.9921552,6.1052069 15.1171034,5.07367241 16.0592069,5.2137931 C16.458931,5.27281034 17.0016724,5.63705172 16.6978966,6.13598276 M24.3871552,7.92424138 L24.4686207,7.92424138 C24.7885603,8.67564736 25.1647312,9.40184598 25.593931,10.0966552 C25.2926897,10.7947241 23.3128966,11.4145862 23.3436724,10.1582069 C23.7709138,9.97065517 24.5109828,10.1191034 24.8907931,9.87832759 C24.6713793,9.27837931 24.3534828,8.757 24.4041724,7.91591379 M17.5078448,7.9437931 C17.8452931,8.56075862 17.955,9.21103448 18.4358276,9.67918966 C18.6523448,9.88918966 19.0745172,10.1444483 18.863431,10.7302759 C18.715559,10.9562781 18.5027469,11.1322331 18.2529828,11.235 C17.5020517,11.4562241 15.75,11.2798966 16.343431,10.3461207 C16.9651034,10.3743621 17.8003966,10.7498276 18.2642069,10.2986897 C17.9072069,9.73784483 17.2714138,8.61687931 17.5049483,7.94415517 M24.102931,14.2231552 C22.9779828,14.9462069 21.7096552,15.7366034 19.8562241,15.5519483 C19.4138752,15.1273425 19.3448601,14.4445538 19.6932931,13.9400172 C19.8927931,14.2818103 19.766431,14.915431 20.3258276,15.0106552 C21.3776379,15.1902414 22.601431,14.3687069 23.3606897,14.0826724 C23.8302931,13.2951724 23.3212241,13.0037069 22.8965172,12.4964483 C22.0304483,11.4562241 20.868931,10.1668966 20.910931,8.61144828 C21.2596034,8.35872414 21.2907414,8.99813793 21.341431,9.11291379 C21.7940172,10.1668966 22.9301897,11.5152414 23.7600517,12.4178793 C23.9628103,12.6391034 24.2998966,12.8523621 24.3364655,13.0008103 C24.4432759,13.4269655 24.0551379,13.9400172 24.1003966,14.2231552 M9.18568966,13.4548448 C8.83122414,13.2531724 8.74686207,12.3646552 8.34206897,12.3338793 C7.74574138,12.2973103 7.85544828,13.4856207 7.85798276,14.1807931 C7.44739655,13.8111207 7.37715517,12.6702414 7.67803448,12.0844138 C7.33515517,11.9160517 7.18308621,12.269069 6.99191379,12.3925345 C7.23667241,10.6238276 9.59048276,11.5713621 9.19981034,13.4494138 M24.8234483,14.9603276 C24.2973621,15.9581897 23.5518621,17.0596034 22.0105345,17.0932759 C21.9655708,16.7584164 21.9655708,16.4190491 22.0105345,16.0841897 C23.1919655,15.9719483 23.9229828,15.3723621 24.8230862,14.9628621 M17.4176897,15.6077069 C18.4050517,16.1236552 20.2164828,16.1681897 21.5550517,16.1403103 C21.6162414,16.4741379 21.6405,16.8133966 21.6281897,17.1522931 C19.9069138,17.2391897 17.8677414,16.8130345 17.4093621,15.6077069 M17.2323103,16.5718966 C17.913,18.2790517 20.2584828,18.0828103 22.2324828,18.0353793 C22.1416848,18.2848658 21.9601656,18.4909496 21.7241379,18.6125172 C21.0912414,18.8706724 19.3446207,19.0640172 18.464431,18.6125172 C17.9017759,18.3185172 17.5476724,17.6512241 17.2438966,17.2587414 C17.0976207,17.0708276 16.3604483,16.5860172 17.2438966,16.5860172" id="形状" fill="#231F20" fill-rule="nonzero"></path>
                            <path d="M24.0214655,25.982069 C23.2227414,27.347069 22.4551552,28.7515345 21.5072586,29.9539655 C21.9037241,28.7881034 22.0695517,26.8369138 22.1343621,25.3484483 C22.9779828,24.9588621 23.6785862,25.4353448 24.0214655,25.982069" id="路径" fill="#81B0C4" fill-rule="nonzero"></path>
                            <path d="M28.3275517,30.8902759 C27.4332414,31.0698621 26.8032414,31.935931 25.9284828,31.8798103 C26.4093103,31.2041897 27.2500345,30.9210517 28.3275517,30.8902759 M28.7211207,32.2864138 C27.9504659,32.3999676 27.1712556,32.4449197 26.3926552,32.4207414 C26.7438621,31.8885 28.0798966,32.0702586 28.7211207,32.2864138 M28.9687759,33.4913793 C28.1476034,33.5083966 27.1294655,33.4913793 26.3473966,33.4272931 C26.8086724,32.9337931 28.4343621,33.2448103 28.9687759,33.4917414" id="形状" fill="#231F20" fill-rule="nonzero"></path>
                            <path d="M22.4772414,36.7880172 C22.5956379,37.8141207 23.0033276,38.8568793 22.9526379,39.9807414 C22.5355966,40.1625384 22.0860191,40.2578734 21.6310862,40.2609828 C21.5887241,39.3051207 21.4594655,37.8448966 21.498569,36.933569 C21.7969138,36.9534828 22.2382759,36.7206724 22.4776034,36.7851207" id="路径" fill="#DCD9D8" fill-rule="nonzero"></path>
                            <path d="M21.1556897,21.6513621 C20.7451034,21.9316034 20.3935345,22.2538448 19.997069,22.5398793 C19.1194138,22.5818793 18.6411207,22.4783276 17.9973621,21.9793966 C17.9973621,21.939931 18.0733966,21.9569483 18.075931,21.9062586 C19.0151379,22.3240862 20.2077931,21.7353621 21.1698103,21.6513621" id="路径" fill="#F0D6B7" fill-rule="nonzero"></path>
                            <path d="M16.2253966,28.0313793 C16.4839138,26.9100517 17.4937241,26.3492069 18.4133793,25.7268103 C19.3612759,26.9267069 19.9376897,28.4683966 20.5734828,29.9539655 C19.0592471,29.4709006 17.6013757,28.8263297 16.2250345,28.0313793" id="路径" fill="#81B0C4" fill-rule="nonzero"></path>
                            <path d="M21.498569,36.9364655 C21.4594655,37.8477931 21.5890862,39.3080172 21.6310862,40.2638793 C22.0860191,40.26077 22.5355966,40.1654349 22.9526379,39.9836379 C23.0033276,38.8623103 22.5956379,37.8195517 22.4776034,36.7909138 C22.2386379,36.7206724 21.7969138,36.9563793 21.498569,36.9364655 Z M12.0351724,31.7538103 C12.3545886,35.1551873 13.0400907,38.5121689 14.0797759,41.7664655 C16.4422759,42.4811897 19.2913966,42.5427414 21.3921207,41.8982586 C21.0097759,40.0622069 21.1756034,37.8278793 20.9536552,35.8687241 C20.784569,34.3969138 20.8718276,32.9142414 20.6386552,31.4145517 C18.0958448,30.8902759 14.5186034,31.2914483 12.0351724,31.7538103 L12.0351724,31.7538103 Z M21.2262931,31.437 C21.2038448,33.0152586 21.2965345,34.5707069 21.4174655,36.1489655 C22.0250172,36.0591724 22.4385,35.9976207 23.0011552,35.8687241 C22.8183103,34.3494828 22.8407586,32.6365345 22.4667414,31.2939828 C22.0472241,31.2721956 21.6270107,31.3205311 21.2233966,31.437 L21.2262931,31.437 L21.2262931,31.437 Z M24.3201724,31.1817414 C24.0211986,31.1460635 23.7190428,31.1460635 23.420069,31.1817414 C23.5493276,32.4685345 23.8643276,33.8867586 23.9827241,35.2351034 C24.4157586,35.2351034 24.6463966,35.0446552 25.0037586,34.9773103 C25.0233103,33.7915345 24.8994828,32.1741724 24.3285,31.1792069 L24.3201724,31.1817414 L24.3201724,31.1817414 Z M28.9691379,35.4342414 C29.8717759,35.2155517 30.4402241,34.1112414 30.1867759,32.9786897 C30.0180517,32.2161724 29.7142759,30.7838276 29.3909483,30.2957586 C29.1519828,29.9344138 28.5049655,29.4550345 27.9846724,29.7942931 C27.1410517,30.3323276 25.6616379,30.486569 25.0482931,31.1368448 C25.3549655,32.1571552 25.4505517,33.5590862 25.5769138,34.8538448 C26.6290862,34.9182931 27.9231207,34.5736034 28.7946207,34.9407414 C28.1845345,35.1369828 27.3883448,35.1398793 26.8655172,35.4259138 C27.2956552,35.6330172 28.3054655,35.5910172 28.9633448,35.4259138 L28.9691379,35.4342414 Z M20.5655172,29.9568621 C19.9297241,28.4687586 19.3533103,26.9267069 18.4054138,25.7297069 C17.4940862,26.3492069 16.4817414,26.9100517 16.2257586,28.0310172 C17.6009118,28.8270055 19.0576852,29.4727879 20.5709483,29.9572241 L20.5655172,29.9572241 L20.5655172,29.9568621 Z M22.1292931,25.3484483 C22.0699138,26.8369138 21.8986552,28.7881034 21.5018276,29.9539655 C22.4497241,28.7486379 23.2176724,27.347069 24.0163966,25.982069 C23.6814828,25.4353448 22.9671207,24.9476379 22.1347241,25.3484483 L22.128931,25.3484483 L22.1292931,25.3484483 Z M20.354431,24.7206207 C19.9945345,24.6815172 19.6907586,25.1326552 19.2294828,24.9364138 C19.1226724,25.0540862 19.0241897,25.1833448 18.9144828,25.2981207 C19.9463793,26.5371207 20.4163448,28.2975 21.215069,29.7551897 C21.6423103,28.3536207 21.5948793,26.8202586 21.687569,25.2923276 C21.0937759,25.3317931 20.7733448,24.7626207 20.3627586,24.7206207 L20.354431,24.7206207 L20.354431,24.7206207 Z M19.2124655,23.220931 C19.173,23.6470862 19.2743793,23.7817759 19.3587414,24.2720172 C20.7679138,24.7065 20.5318448,22.3548621 19.2211552,23.220931 L19.2124655,23.220931 Z M17.6686034,22.7053448 C16.9490219,22.3182977 16.178246,22.0351232 15.3792414,21.8642586 C14.4117931,21.6796034 14.5044828,23.178931 14.5356207,24.0728793 C14.5663966,24.7796379 14.9375172,25.5280345 15.0979138,25.9990862 C15.1739483,26.2174138 15.1906034,26.4502241 15.3792414,26.4951207 C15.7108966,26.5736897 16.8105,26.1334138 17.1229655,25.9654138 C17.7837414,25.6066034 18.2986034,25.0348966 18.8608966,24.6507414 C18.8608966,24.4635517 18.8685,24.2767241 18.8833448,24.0898966 C18.5023732,23.9005782 18.085111,23.7954909 17.6599138,23.7817759 C17.9977241,23.6134138 18.5035345,23.6163103 18.7852241,23.4142759 L18.7852241,23.1901552 C18.2508103,23.1622759 18.0368276,22.9128103 17.6686034,22.7049828 L17.6686034,22.7053448 Z M11.9030172,21.6625862 C11.4022759,22.1698448 13.308931,22.8592241 13.9139483,22.8986897 C13.9139483,22.5789828 14.0967931,22.2762931 14.0602241,22.0576034 C13.3371724,21.9232759 12.3921724,22.0069138 11.9001207,21.6680172 L11.9030172,21.6625862 L11.9030172,21.6625862 Z M18.0762931,21.9008276 C18.0762931,21.9515172 18.0089483,21.9316034 17.9977241,21.9736034 C18.6414828,22.475431 19.1226724,22.5789828 19.997069,22.5340862 C20.3938966,22.2538448 20.742569,21.9149483 21.1556897,21.645569 C20.2081552,21.7353621 19.0129655,22.3240862 18.0733966,21.9062586 L18.0762931,21.9008276 L18.0762931,21.9008276 Z M23.7405,23.6134138 C23.7126207,23.052931 23.5663448,21.8925 23.2147759,21.6908276 C22.4805,21.2643103 21.1785,22.5511034 20.627069,22.7473448 C20.7128793,22.9128103 20.769,23.0920345 20.7932586,23.2770517 C21.1320127,23.2031997 21.4856457,23.2426336 21.7998103,23.3892931 C21.4739483,23.4255 21.1111552,23.4229655 20.8946379,23.5797414 C20.8157069,23.8096552 20.9141897,24.1206724 20.8606034,24.4378448 C21.7248621,24.6659483 22.6133793,24.7879655 23.5073276,24.8020862 C23.7064655,24.4414655 23.7872069,24.0276207 23.7379655,23.6192069 L23.7405,23.6134138 L23.7405,23.6134138 Z M11.0590345,22.1445 C10.9015345,22.0322586 9.8385,20.6535 9.69222414,20.7092586 C7.76601724,21.4659828 5.96581034,22.7752241 4.34844828,24.0142241 C5.88398276,27.2967414 6.50275862,31.3026724 6.59834483,35.1902069 C8.35618966,36.0084828 9.90041379,37.1917241 12.2853621,37.3151897 C12.0040345,35.3697931 11.7567414,33.6318621 11.6017759,31.7987069 C11.0029138,31.5463448 10.1422759,31.7987069 9.58251724,31.7201379 C9.58251724,31.0474138 10.4261379,31.4257759 10.5105,30.9717414 C10.5640862,30.6295862 10.038,30.6042414 10.2099828,30.0633103 C10.6484483,30.2233448 10.8790862,30.5738276 11.334569,30.7052586 C11.7621724,29.7747414 11.334569,28.1266034 11.3910517,27.3416379 C11.3910517,27.1957241 11.4641897,26.5313276 11.7929483,26.6493621 C12.122431,26.7670345 11.7762931,28.4151724 11.807431,29.1523448 C11.8353103,29.8308621 11.7256034,30.4894655 12.0011379,30.9156207 C14.369069,30.5922931 16.752931,30.3978621 19.1422241,30.3326897 C18.4870033,30.0856685 17.8473791,29.7991072 17.2268793,29.4745862 C16.8387414,29.2562586 15.6182069,28.8047586 15.5056034,28.4376207 C15.3281897,27.8546897 15.9726724,27.5433103 16.0849138,27.0360517 C14.9205,27.6696724 14.6956552,26.4306724 14.4201207,25.5530172 C14.2185314,24.950929 14.067152,24.3331798 13.9675345,23.7061034 C12.9469509,23.2650201 11.9647794,22.7399035 11.0311552,22.1361724 L11.0590345,22.1445 L11.0590345,22.1445 Z M22.7227241,20.8772586 C24.3285,20.1009828 24.6152586,23.7759828 23.9881552,24.9588621 C24.0866379,25.3122414 24.4186552,25.446569 24.5508103,25.7633793 C23.6565,27.3611897 22.6608103,28.8467586 21.7382586,30.4333448 C22.4189483,30.0129828 23.3892931,30.3576724 24.1880172,30.0408621 C24.4689828,29.9260862 24.6912931,29.2587931 24.9136034,28.7265517 C25.5605411,27.2004711 26.0733574,25.6209532 26.4462414,24.0058966 C26.5606552,23.5819138 26.6272759,23.1467069 26.6461034,22.7078793 C26.5755,22.2009828 25.8839483,21.8222586 25.5211552,21.5083448 C24.8712414,20.9279483 24.4635517,20.4148966 23.7857586,19.871431 C23.504431,20.2747759 22.9222241,20.5466897 22.6973793,20.8747241 L22.7227241,20.8776207 L22.7227241,20.8772586 Z M7.38910345,6.69393103 C6.62368966,7.53465517 6.78444828,9.10458621 6.87677586,10.2204828 C8.2577069,9.35405172 10.0944828,10.2874655 10.0774655,11.7618103 C10.7386034,11.7451552 10.3251207,10.9406379 10.2041897,10.4221552 C9.81315517,8.73998276 10.862069,6.8927069 10.2519828,5.34558621 C9.15866716,5.4036606 8.13126475,5.886441 7.38874138,6.69103448 L7.38874138,6.69393103 L7.38910345,6.69393103 Z M12.8592414,1.82772414 C11.1292759,2.31543103 8.92174138,3.57108621 8.19868966,5.12146552 C8.76134483,5.04289655 9.13282759,4.76518966 9.6752069,4.73151724 C9.91091379,4.76410345 10.1495172,4.77351724 10.3870345,4.75975862 C10.8566379,4.64462069 11.2531034,3.59389655 11.6104655,3.20105172 C11.9674655,2.80856897 12.3726207,2.65722414 12.6568448,2.30674138 C12.8393276,2.21984483 13.109431,2.22563793 13.1206552,1.95082759 C13.0362931,1.87841379 12.9548276,1.81360345 12.8592414,1.83858621 L12.8592414,1.82772414 Z M21.8591897,2.28755172 C20.0618793,1.27810345 17.0219483,0.515948276 15.1091379,1.46601724 C13.5678103,2.23143103 11.4812069,3.50084483 10.7722759,5.11024138 C11.4359483,6.65989655 10.5753103,8.08137931 10.5220862,9.65674138 C10.4938448,10.4978276 10.9185517,11.2263103 10.9493276,12.1376379 C10.7215862,12.510569 10.0267759,12.5576379 9.54305172,12.5326552 C9.38012069,11.7252414 9.0987931,10.820069 8.2635,10.7273793 C7.73498891,10.6832867 7.2114795,10.8575717 6.81486207,11.2096552 C6.41898273,11.5609902 6.18512055,12.0597478 6.1682069,12.5887759 C6.10339655,13.7828793 7.09075862,15.7648448 8.48544828,15.6272586 C9.02565517,15.5740345 9.15781034,15.036 9.74544828,15.041431 C10.0633448,15.6750517 9.25339655,15.8825172 9.18315517,16.3253276 C9.19365517,16.5914483 9.23312069,16.8553966 9.30118966,17.1131897 C9.58597363,18.248509 10.0543886,19.3296549 10.6879138,20.3138793 C11.3939483,21.3233276 12.7806724,21.4746724 14.2738448,21.5727931 C14.5410517,21.0123103 15.5226207,21.0485172 16.1609483,21.1973276 C15.3933621,20.8942759 14.6815345,20.16 14.091,19.5151552 C13.4132069,18.7696552 12.7241897,17.970931 12.6847241,16.9926207 C13.9671724,18.7642241 15.0273103,20.3142414 17.3590345,21.0934138 C19.1223103,21.6821379 21.1842931,20.8131724 22.5398793,19.8739655 C23.1021724,19.4789483 23.4370862,18.8536552 23.8389828,18.2819483 C25.3354138,16.1374138 26.0331207,13.0764828 25.8810517,10.1078793 C25.8191379,8.883 25.8220345,7.66391379 25.4085517,6.84237931 C24.995069,6.0212069 23.5214483,5.21089655 22.6691379,6.0012931 C22.5116379,5.16056897 23.3777069,4.64751724 24.3962069,4.94767241 C23.6702586,4.01389655 22.9081034,2.89293103 21.8646207,2.30963793 L21.8591897,2.28718966 L21.8591897,2.28755172 Z M25.2061552,29.8978448 C26.612069,29.2026724 29.2334483,28.0255862 30.1136379,29.8978448 C30.4783233,30.7290978 30.7709837,31.5901203 30.9883966,32.471431 C31.2273621,33.4776207 30.7298793,35.5939138 29.6921897,35.9302759 C28.6825926,36.2120266 27.6179181,36.2323358 26.5983103,35.9892931 C26.4434279,35.8504617 26.31563,35.6841156 26.2213966,35.4986897 C25.4856659,35.4324504 24.7453234,35.5579406 24.0725172,35.862931 C24.1315345,36.4433276 23.7379655,36.5385517 23.3664828,36.6562241 C23.0855172,37.7384483 23.9291379,39.1537759 23.7180517,40.1433103 C23.577569,40.8468103 22.7086034,40.9561552 22.0699138,41.0883103 C22.0590517,41.4387931 22.0829483,41.79 22.1405172,42.1365 C21.9942414,42.6716379 21.3388966,42.9772241 20.7201207,43.0528966 C18.6780517,43.296931 15.5787414,43.4062759 13.6156034,42.7027759 C13.067069,41.3627586 12.636931,39.7338103 12.1781897,38.2178276 C10.2628448,38.4223966 8.71318966,37.3933966 7.25405172,36.7206724 C6.74751724,36.4882241 6.05017241,36.3593276 5.84741379,35.9585172 C5.64501724,35.5573448 5.74060345,34.8371897 5.69281034,34.1224655 C5.57767241,32.3255172 5.47918966,30.5959138 5.0037931,28.7573276 C4.79017241,27.9328966 4.41868966,27.2040517 4.16017241,26.4082241 C3.9212069,25.6710517 3.50193103,24.7600862 3.39222414,24.0258103 C3.2292931,22.9377931 4.25865517,22.8762414 4.91653448,22.4051897 C5.93467241,21.6763448 6.7305,21.2842241 7.833,20.6140345 C8.15958621,20.4177931 9.14368966,19.9246552 9.2562931,19.6976379 C9.47860345,19.2461379 8.87394828,18.6099828 8.71318966,18.2566034 C8.47193236,17.7606391 8.32788975,17.2230603 8.28884483,16.6729138 C7.45485232,16.5361943 6.71413801,16.0616394 6.24134483,15.3611379 C5.54110345,14.337931 5.05737931,12.4457586 5.66203448,11.0079828 C5.70982759,10.8957414 5.943,10.6712586 5.98246552,10.4974655 C6.0527069,10.1556724 5.8532069,9.69874138 5.84198276,9.3345 C5.77717241,7.46477586 6.15987931,5.85284483 7.42241379,5.28946552 C7.93437931,3.25463793 9.77115517,2.57612069 11.5007586,1.56413793 C12.1715309,1.20656678 12.8727122,0.909228107 13.5960517,0.67562069 C16.2366207,-0.294362069 20.2867241,-0.109344828 22.4772414,1.54168966 C23.4055862,2.24265517 24.8907931,3.71989655 25.4223103,4.79053448 C26.8285862,7.61612069 26.7243103,12.3422069 25.7456379,15.7815 C25.594461,16.3571088 25.3969722,16.9195462 25.1551034,17.4633103 C24.9693621,17.8503621 24.3900517,18.6266379 24.4602931,18.9687931 C24.5305345,19.3105862 25.7793103,20.2664483 26.0494138,20.5242414 C26.5302414,20.9869655 27.4556897,21.603569 27.5201379,22.1865 C27.5853103,22.769431 27.2391724,23.6612069 27.0646552,24.2611552 C26.4628966,26.2652069 25.8777931,28.1153793 25.1971034,29.9007414 L25.2057931,29.8978448 L25.2061552,29.8978448 Z" id="形状" fill="#231F20" fill-rule="nonzero"></path>
                            <path d="M15.8513793,16.0450862 C15.9274138,15.944069 16.3463276,15.7898276 16.931431,16.0729655 C16.931431,16.0729655 16.2362586,16.1881034 16.2956379,17.3427414 L16.0143103,17.2840862 C16.0143103,17.2840862 15.7163276,16.238431 15.8597069,16.0450862" id="路径" fill="#F7E4CD" fill-rule="nonzero"></path>
                            <path d="M20.9250517,25.9625172 C20.9249558,26.0466995 20.8913978,26.1273904 20.8317701,26.1868142 C20.7721425,26.2462381 20.6913372,26.2795198 20.6071552,26.2793284 C20.5229731,26.2795198 20.4421678,26.2462381 20.3825402,26.1868142 C20.3229126,26.1273904 20.2893545,26.0466995 20.2892586,25.9625172 C20.2892586,25.7876379 20.4315517,25.6457069 20.6071552,25.6457069 C20.7827586,25.6457069 20.9250517,25.7876379 20.9250517,25.9625172 M21.2425862,27.4339655 C21.2424902,27.5180849 21.2089819,27.5987208 21.1494326,27.6581343 C21.0898833,27.7175478 21.0091711,27.7508719 20.9250517,27.7507767 C20.8408697,27.7509681 20.7600644,27.7176864 20.7004368,27.6582625 C20.6408091,27.5988386 20.6072511,27.5181477 20.6071552,27.4339655 C20.6071552,27.2590862 20.7494483,27.1171552 20.9250517,27.1171552 C21.1006552,27.1171552 21.2429483,27.2590862 21.2429483,27.4339655" id="形状" fill="#1D1919" fill-rule="nonzero"></path>
                        </g>
                    </g>
                </g>
            </g>
        </g>
    </g>
</svg>