<?xml version="1.0" encoding="UTF-8"?>
<svg width="56px" height="56px" viewBox="0 0 56 56" version="1.1" xmlns="http://www.w3.org/2000/svg" xmlns:xlink="http://www.w3.org/1999/xlink">
    <title>蓝湖</title>
    <defs>
        <linearGradient x1="5.99872076%" y1="3.796875%" x2="100%" y2="100%" id="linearGradient-1">
            <stop stop-color="#69A0FF" offset="0%"></stop>
            <stop stop-color="#0063F7" offset="100%"></stop>
        </linearGradient>
    </defs>
    <g id="页面-1" stroke="none" stroke-width="1" fill="none" fill-rule="evenodd">
        <g id="快捷应用" transform="translate(-578.000000, -180.000000)">
            <g id="编组" transform="translate(232.000000, 118.000000)">
                <g id="编组-2" transform="translate(24.000000, 16.000000)">
                    <g id="蓝湖" transform="translate(322.000000, 46.000000)">
                        <path d="M25.6687182,-6.73932599e-16 L30.3312818,6.73932599e-16 C37.0971651,-5.68940006e-16 41.1601176,1.02108172 44.7453027,2.93845974 C48.3304879,4.85583776 51.1441622,7.66951208 53.0615403,11.2546973 C54.9789183,14.8398824 56,18.9028349 56,25.6687182 L56,30.3312818 C56,37.0971651 54.9789183,41.1601176 53.0615403,44.7453027 C51.1441622,48.3304879 48.3304879,51.1441622 44.7453027,53.0615403 C41.1601176,54.9789183 37.0971651,56 30.3312818,56 L25.6687182,56 C18.9028349,56 14.8398824,54.9789183 11.2546973,53.0615403 C7.66951208,51.1441622 4.85583776,48.3304879 2.93845974,44.7453027 C1.02108172,41.1601176 3.79293337e-16,37.0971651 -4.492884e-16,30.3312818 L4.492884e-16,25.6687182 C-3.79293337e-16,18.9028349 1.02108172,14.8398824 2.93845974,11.2546973 C4.85583776,7.66951208 7.66951208,4.85583776 11.2546973,2.93845974 C14.8398824,1.02108172 18.9028349,5.68940006e-16 25.6687182,-6.73932599e-16 Z" id="矩形备份-4" fill="url(#linearGradient-1)"></path>
                        <g id="Unknown" transform="translate(13.000000, 12.000000)" fill="#FFFFFF">
                            <path d="M15.2621739,20.3842107 C13.3908261,20.3842107 11.7109826,19.5627607 10.543813,18.257125 C9.51495652,17.1024775 8.8872,15.5712119 8.8872,13.8914504 C8.8872,10.3062976 11.742,7.40131379 15.2621739,7.40131379 C17.562913,7.40131379 19.5774783,8.64096596 20.6943913,10.5004442 C20.6966087,10.5030678 20.6988261,10.5050355 20.6988261,10.5076591 C21.293087,11.4947896 21.6345652,12.6517983 21.6345652,13.8914504 C21.6345652,17.4766032 18.7823478,20.3842107 15.2621739,20.3842107 Z M29.2766087,27.3810961 C27.5816087,25.4514365 26.0881304,23.2253098 26.0842174,15.0436055 C26.0920435,14.8549684 26.0926957,14.848803 26.0926957,14.6579359 C26.0926957,11.317434 24.9116087,8.28940323 22.9973478,6.08262559 C23.1418696,5.89372621 23.2901739,5.66908025 23.4371739,5.41885416 C23.4562174,5.38769888 23.472913,5.3565436 23.4894783,5.32538832 C23.6625652,5.02695354 23.8334348,4.69539578 23.9924348,4.34219329 C24.149087,3.99358211 24.2912609,3.63086907 24.4125652,3.27012373 C24.4266522,3.22453863 24.4434783,3.17928149 24.455087,3.13336845 C24.5286522,2.90019578 24.5924348,2.66735106 24.645,2.44368894 C24.887087,1.38375354 24.8416957,0.47533118 24.2393478,0.218218137 C23.8973478,0.0716243478 23.4845217,0.484841739 23.0051739,1.09286161 C22.9887391,1.11450634 22.9696957,1.13615106 22.9506522,1.16009143 C22.9293913,1.1866554 22.9081304,1.21321938 22.8864783,1.24175106 C22.5734348,1.65037714 22.2271304,2.12885665 21.849913,2.57093366 C21.8212174,2.60471255 21.7927826,2.63816348 21.7644783,2.67194236 C21.7476522,2.69096348 21.7312174,2.71031255 21.7145217,2.72966161 C21.302087,3.19830261 20.853913,3.61512745 20.37,3.85682683 C18.8629565,2.94774857 17.1427826,2.43253863 15.3169565,2.43253863 C13.4443043,2.43253863 11.6832522,2.97431255 10.1488435,3.9276641 C9.60555652,3.70236224 9.1058087,3.24782311 8.6499,2.72966161 C8.63312609,2.71031255 8.6166913,2.69096348 8.60024348,2.67194236 C8.57154783,2.63816348 8.54317826,2.60471255 8.51448261,2.57093366 C8.13723913,2.12885665 7.79096087,1.65037714 7.4778913,1.24175106 C7.45660435,1.21321938 7.43500435,1.1866554 7.41373043,1.16009143 C7.3947,1.13615106 7.3760087,1.11450634 7.35923478,1.09286161 C6.87979565,0.484841739 6.4671,0.0716243478 6.12532174,0.218218137 C5.52271304,0.47533118 5.47758261,1.38375354 5.71939565,2.44368894 C5.77162174,2.66735106 5.83579565,2.90019578 5.9093087,3.13336845 C5.92123043,3.17928149 5.93767826,3.22453863 5.95185652,3.27012373 C6.07309565,3.63086907 6.2156087,3.99358211 6.37197391,4.34219329 C6.53093478,4.69539578 6.70181739,5.02695354 6.87528261,5.32538832 C6.89173043,5.3565436 6.90816522,5.38769888 6.92719565,5.41885416 C7.11903913,5.74549267 7.31312609,6.02818584 7.49788696,6.24561689 C5.66555217,8.43730882 4.54125652,11.3987657 4.54125652,14.6579359 C4.54125652,14.9176725 4.52771739,15.009761 4.54158261,15.2655622 C4.50901304,23.2767324 2.92592609,25.467834 1.24545652,27.3810961 C0.0405521739,28.7528467 1.06553478,31.6335622 3.58076087,30.347997 C8.6499,27.7571896 9.83157391,32.5659906 15.2547391,32.4055573 C20.6778261,32.2452552 21.7145217,27.7571896 26.9413043,30.347997 C29.4716087,31.6027349 30.4811739,28.7528467 29.2766087,27.3810961 Z" id="形状"></path>
                            <path d="M21.1323913,12.9504954 C21.1323913,14.7653724 19.6883478,16.2362952 17.9063478,16.2362952 C16.1246087,16.2362952 14.6801739,14.7653724 14.6801739,12.9504954 C14.6801739,11.1356184 16.1246087,9.66445953 17.9063478,9.66445953 C19.6883478,9.66445953 21.1323913,11.1356184 21.1323913,12.9504954 Z" id="路径"></path>
                        </g>
                    </g>
                </g>
            </g>
        </g>
    </g>
</svg>