<?xml version="1.0" encoding="UTF-8"?>
<svg width="41px" height="41px" viewBox="0 0 41 41" version="1.1" xmlns="http://www.w3.org/2000/svg" xmlns:xlink="http://www.w3.org/1999/xlink">
    <title>logo</title>
    <defs>
        <linearGradient x1="49.9981983%" y1="99.9981453%" x2="49.9981983%" y2="0.00156952896%" id="linearGradient-1">
            <stop stop-color="#F0776F" offset="3.22%"></stop>
            <stop stop-color="#F0656F" offset="50.32%"></stop>
            <stop stop-color="#F0606F" offset="100%"></stop>
        </linearGradient>
        <linearGradient x1="49.9999999%" y1="0.000675229319%" x2="49.9999999%" y2="99.9996626%" id="linearGradient-2">
            <stop stop-color="#F0776F" offset="3.22%"></stop>
            <stop stop-color="#F0656F" offset="50.32%"></stop>
            <stop stop-color="#F0606F" offset="100%"></stop>
        </linearGradient>
    </defs>
    <g id="定稿" stroke="none" stroke-width="1" fill="none" fill-rule="evenodd">
        <g id="登录-1440" transform="translate(-185.000000, -198.000000)" fill-rule="nonzero">
            <g id="T1B9hfXcdvXXXXXXXX" transform="translate(185.000000, 198.000000)">
                <g id="Group">
                    <path d="M21.5950649,0.559103215 L29.4470822,8.50403375 C30.1843059,9.24998102 30.1843059,10.45893 29.4470822,11.204469 L29.4470822,11.204469 C28.7098585,11.9504163 27.5150477,11.9504163 26.7782276,11.204469 L21.5950649,5.96038211 C20.8578412,5.21443483 19.6630304,5.21443483 18.9262104,5.96038211 L5.8910305,19.1498079 C5.15380683,19.8957551 5.15380683,21.1047041 5.8910305,21.8502431 L18.9262104,35.039669 C19.663434,35.7856161 20.8582447,35.7856161 21.5950649,35.039669 L26.7782276,29.7951737 C27.5154513,29.0492264 28.710262,29.0492264 29.4470822,29.7951737 L29.4470822,29.7951737 C30.1843059,30.541121 30.1843059,31.7500701 29.4470822,32.4956089 L21.5950649,40.4405395 C20.8578412,41.1864868 19.6630304,41.1864868 18.9262104,40.4405395 L0.552917756,21.8502431 C-0.184305919,21.1042958 -0.184305919,19.8953468 0.552917756,19.1498079 L18.9258067,0.559511506 C19.6630304,-0.186435773 20.8582447,-0.186435773 21.5950649,0.559103215 Z" id="Shape" fill="#0080FF"></path>
                    <path d="M32.5555192,14.547404 L32.5555192,14.547404 C33.2962116,13.817532 34.496644,13.817532 35.236931,14.547404 L40.4444807,19.6788798 C41.1851731,20.4087517 41.1851731,21.5916477 40.4444807,22.3211203 L35.236931,27.452596 C34.4962386,28.182468 33.2958061,28.182468 32.5555192,27.452596 L32.5555192,27.452596 C31.8148269,26.7227239 31.8148269,25.5398279 32.5555192,24.8103553 L35.0812519,22.3215197 C35.8219441,21.5916477 35.8219441,20.4087517 35.0812519,19.6792793 L32.5555192,17.1904435 C31.8148269,16.4601721 31.8148269,15.277276 32.5555192,14.547404 Z" id="Shape" fill="url(#linearGradient-1)"></path>
                </g>
                <path d="M21,27 C24.3137109,27 27,24.3137109 27,21 C27,17.6862891 24.3137109,15 21,15 C17.6862891,15 15,17.6862891 15,21 C15,24.3137109 17.6862891,27 21,27 Z M21,24 C19.3431615,24 18,22.6568386 18,21 C18,19.3431615 19.3431615,18 21,18 C22.6568386,18 24,19.3431615 24,21 C24,22.6568386 22.6568386,24 21,24 Z" id="Shape" fill="url(#linearGradient-2)"></path>
            </g>
        </g>
    </g>
</svg>