<?xml version="1.0" encoding="UTF-8"?>
<svg width="56px" height="56px" viewBox="0 0 56 56" version="1.1" xmlns="http://www.w3.org/2000/svg" xmlns:xlink="http://www.w3.org/1999/xlink">
    <title>plusart</title>
    <defs>
        <linearGradient x1="5.99872076%" y1="3.796875%" x2="100%" y2="100%" id="linearGradient-1">
            <stop stop-color="#FDED72" offset="0%"></stop>
            <stop stop-color="#FFCC00" offset="100%"></stop>
        </linearGradient>
        <filter x="-44.1%" y="-44.1%" width="188.2%" height="188.2%" filterUnits="objectBoundingBox" id="filter-2">
            <feGaussianBlur stdDeviation="5" in="SourceGraphic"></feGaussianBlur>
        </filter>
    </defs>
    <g id="定稿" stroke="none" stroke-width="1" fill="none" fill-rule="evenodd">
        <g id="快捷应用" transform="translate(-890.000000, -358.000000)">
            <g id="编组" transform="translate(232.000000, 118.000000)">
                <g id="编组-4" transform="translate(24.000000, 194.000000)">
                    <g id="plusart" transform="translate(634.000000, 46.000000)">
                        <rect id="矩形备份-14" fill="url(#linearGradient-1)" x="0" y="0" width="56" height="56" rx="20"></rect>
                        <circle id="椭圆形" fill="#F0C300" filter="url(#filter-2)" cx="28" cy="28" r="17"></circle>
                        <path d="M46.375,22.9603736 L37.3923361,22.9603736 C34.9644262,18.4083024 32.3979508,14.875 28.9036885,14.875 C24.355123,14.875 22.2163934,18.7557438 20.149959,22.5304885 L19.9692213,22.8602634 L9.625,22.8602634 L9.625,25.1039104 L15.6495902,25.1039104 C17.7762705,25.1039104 18.210041,25.8046821 18.210041,25.8046821 C16.5412295,28.3368821 14.535041,30.839638 11.1913934,30.839638 L9.625,30.839638 L9.625,33.1951729 L11.2034426,33.1951729 C17.6859016,33.1951729 20.517459,28.0542179 22.7887295,23.926143 C24.8732377,20.121954 26.3251639,17.8194187 28.9036885,17.8194187 C31.5786066,17.8194187 34.3920902,23.5080355 36.8681967,28.5312137 C37.2296721,29.2614296 37.5971721,30.0093119 37.9706967,30.7513054 C28.4759426,31.0457473 23.9514754,33.2187282 20.2704508,34.9912683 C17.577459,36.2868125 15.4507787,37.8944651 11.9504918,37.8944651 L9.625,37.8944651 L9.625,40.25 L11.932418,40.25 C16.1496311,40.25 18.7763525,38.9780111 21.5717623,37.6294674 C25.4455738,35.7685948 29.8375,33.660391 40.1877459,33.660391 L46.1701639,33.660391 L46.1701639,31.3048561 L42.7903689,31.3048561 C43.7168188,31.4579261 44.36876,32.2793334 44.2901855,33.1945361 C44.211611,34.1097389 43.4287311,34.8134489 42.4891393,34.8134489 C41.5495476,34.8134489 40.7666677,34.1097389 40.6880932,33.1945361 C40.6095187,32.2793334 41.2614599,31.4579261 42.1879098,31.3048561 C40.7118852,29.5970933 40.1335246,28.4193258 39.5672131,27.2415584 L38.7840164,25.6751276 C38.7840164,25.6751276 39.3443033,25.0862439 40.8986475,25.0862439 L46.375,25.0862439 L46.375,22.9603736 Z" id="路径" fill="#FFFFFF"></path>
                    </g>
                </g>
            </g>
        </g>
    </g>
</svg>