<?xml version="1.0" encoding="UTF-8"?>
<svg width="56px" height="56px" viewBox="0 0 56 56" version="1.1" xmlns="http://www.w3.org/2000/svg" xmlns:xlink="http://www.w3.org/1999/xlink">
    <title>RDS</title>
    <defs>
        <linearGradient x1="5.99872076%" y1="3.796875%" x2="100%" y2="100%" id="linearGradient-1">
            <stop stop-color="#69A0FF" offset="0%"></stop>
            <stop stop-color="#0063F7" offset="100%"></stop>
        </linearGradient>
    </defs>
    <g id="页面-1" stroke="none" stroke-width="1" fill="none" fill-rule="evenodd">
        <g id="快捷应用" transform="translate(-266.000000, -714.000000)">
            <g id="编组" transform="translate(232.000000, 118.000000)">
                <g id="编组-6" transform="translate(24.000000, 550.000000)">
                    <g id="RDS" transform="translate(10.000000, 46.000000)">
                        <rect id="矩形备份-22" fill="url(#linearGradient-1)" x="0" y="0" width="56" height="56" rx="20"></rect>
                        <path d="M7.595,20.006 L14.273,20.006 C15.806,20.006 17.024,20.342 17.906,21.035 C18.83,21.791 19.313,22.883 19.313,24.311 C19.313,25.088 19.103,25.781 18.683,26.39 C18.221,27.062 17.57,27.503 16.772,27.713 L16.772,27.755 C18.074,28.049 18.809,28.91 18.977,30.38 L19.229,32.795 C19.313,33.719 19.628,34.454 20.132,35 L17.465,35 C17.108,34.538 16.898,33.887 16.814,33.047 L16.625,31.199 C16.541,30.38 16.289,29.792 15.869,29.435 C15.428,29.057 14.777,28.889 13.937,28.889 L10.052,28.889 L10.052,35 L7.595,35 L7.595,20.006 Z M10.052,22.106 L10.052,26.789 L13.937,26.789 C14.903,26.789 15.638,26.579 16.142,26.18 C16.604,25.76 16.835,25.172 16.835,24.416 C16.835,23.597 16.604,23.009 16.142,22.652 C15.68,22.274 14.945,22.106 13.937,22.106 L10.052,22.106 Z M22.582,20.006 L28.063,20.006 C30.499,20.006 32.326,20.678 33.586,22.022 C34.783,23.282 35.392,25.109 35.392,27.503 C35.392,29.876 34.783,31.703 33.586,32.984 C32.326,34.328 30.499,35 28.063,35 L22.582,35 L22.582,20.006 Z M25.039,22.106 L25.039,32.9 L27.601,32.9 C29.47,32.9 30.835,32.459 31.696,31.598 C32.536,30.716 32.956,29.351 32.956,27.503 C32.956,25.613 32.536,24.227 31.696,23.387 C30.835,22.526 29.47,22.106 27.601,22.106 L25.039,22.106 Z M43.344,19.712 C45.108,19.712 46.494,20.069 47.481,20.804 C48.531,21.581 49.14,22.799 49.287,24.437 L46.851,24.437 C46.641,23.513 46.242,22.841 45.696,22.442 C45.15,22.022 44.31,21.833 43.218,21.833 C42.273,21.833 41.559,21.959 41.055,22.232 C40.425,22.547 40.131,23.072 40.131,23.786 C40.131,24.416 40.467,24.941 41.181,25.319 C41.496,25.487 42.357,25.802 43.743,26.243 C45.78,26.873 47.082,27.377 47.67,27.713 C48.972,28.49 49.623,29.561 49.623,30.947 C49.623,32.291 49.098,33.362 48.048,34.139 C46.998,34.895 45.507,35.294 43.596,35.294 C41.748,35.294 40.299,34.937 39.27,34.223 C38.01,33.341 37.317,31.955 37.212,30.044 L39.648,30.044 C39.816,31.178 40.215,31.997 40.866,32.48 C41.454,32.9 42.357,33.131 43.596,33.131 C44.688,33.131 45.57,32.942 46.2,32.585 C46.83,32.207 47.166,31.724 47.166,31.094 C47.166,30.296 46.683,29.666 45.759,29.204 C45.465,29.057 44.499,28.721 42.84,28.217 C40.992,27.629 39.837,27.209 39.396,26.957 C38.241,26.264 37.674,25.256 37.674,23.933 C37.674,22.61 38.22,21.56 39.354,20.804 C40.404,20.069 41.727,19.712 43.344,19.712 Z" fill="#FFFFFF" fill-rule="nonzero"></path>
                    </g>
                </g>
            </g>
        </g>
    </g>
</svg>