<?xml version="1.0" encoding="UTF-8"?>
<svg width="56px" height="56px" viewBox="0 0 56 56" version="1.1" xmlns="http://www.w3.org/2000/svg" xmlns:xlink="http://www.w3.org/1999/xlink">
    <title>Sonar</title>
    <defs>
        <linearGradient x1="5.99872076%" y1="3.796875%" x2="100%" y2="100%" id="linearGradient-1">
            <stop stop-color="#AC5DD9" offset="0%"></stop>
            <stop stop-color="#6600CC" offset="100%"></stop>
        </linearGradient>
    </defs>
    <g id="页面-1" stroke="none" stroke-width="1" fill="none" fill-rule="evenodd">
        <g id="快捷应用" transform="translate(-422.000000, -358.000000)">
            <g id="编组" transform="translate(232.000000, 118.000000)">
                <g id="编组-4" transform="translate(24.000000, 194.000000)">
                    <g id="Sonar" transform="translate(166.000000, 46.000000)">
                        <rect id="矩形备份-12" fill="url(#linearGradient-1)" x="0" y="0" width="56" height="56" rx="20"></rect>
                        <path d="M13.2062452,16.810439 C28.1389859,17.4274962 36.8496294,26.2464826 39.1579189,42.9835649 L39.2259071,43.4931726 L37.2611865,43.75 C35.1997842,27.7643852 27.3545705,19.5500716 13.5452888,18.8232259 L13.125,18.8034919 L13.2062452,16.810439 Z M23.2309193,14.4194494 C32.5735048,16.7686389 38.6482887,23.378103 41.3880604,34.1080874 L41.4812134,34.4797198 L39.55812,34.9593195 C37.0629502,24.8171981 31.584866,18.688494 23.0567387,16.4336227 L22.7508658,16.3547384 L23.2309193,14.4194494 Z M33.502114,14 C37.498008,16.4827164 40.5676021,20.1472057 42.7038372,24.9677983 L42.875,25.3611902 L41.0549623,26.149257 C39.1238301,21.6282365 36.3650887,18.2183653 32.7717106,15.8940893 L32.4616626,15.6975236 L33.502114,14 Z" id="形状结合" fill="#FFFFFF" fill-rule="nonzero"></path>
                    </g>
                </g>
            </g>
        </g>
    </g>
</svg>