<?xml version="1.0" encoding="UTF-8"?>
<svg width="56px" height="56px" viewBox="0 0 56 56" version="1.1" xmlns="http://www.w3.org/2000/svg" xmlns:xlink="http://www.w3.org/1999/xlink">
    <title>SQL</title>
    <defs>
        <linearGradient x1="5.99872076%" y1="3.796875%" x2="92.2665551%" y2="91.796875%" id="linearGradient-1">
            <stop stop-color="#FF7CA7" offset="0%"></stop>
            <stop stop-color="#FD4983" offset="100%"></stop>
        </linearGradient>
    </defs>
    <g id="页面-1" stroke="none" stroke-width="1" fill="none" fill-rule="evenodd">
        <g id="快捷应用" transform="translate(-1046.000000, -536.000000)">
            <g id="编组" transform="translate(232.000000, 118.000000)">
                <g id="编组-5" transform="translate(24.000000, 372.000000)">
                    <g id="SQL" transform="translate(790.000000, 46.000000)">
                        <rect id="矩形备份-16" fill="url(#linearGradient-1)" x="0" y="0" width="56" height="56" rx="20"></rect>
                        <path d="M12.887,19.712 C14.651,19.712 16.037,20.069 17.024,20.804 C18.074,21.581 18.683,22.799 18.83,24.437 L16.394,24.437 C16.184,23.513 15.785,22.841 15.239,22.442 C14.693,22.022 13.853,21.833 12.761,21.833 C11.816,21.833 11.102,21.959 10.598,22.232 C9.968,22.547 9.674,23.072 9.674,23.786 C9.674,24.416 10.01,24.941 10.724,25.319 C11.039,25.487 11.9,25.802 13.286,26.243 C15.323,26.873 16.625,27.377 17.213,27.713 C18.515,28.49 19.166,29.561 19.166,30.947 C19.166,32.291 18.641,33.362 17.591,34.139 C16.541,34.895 15.05,35.294 13.139,35.294 C11.291,35.294 9.842,34.937 8.813,34.223 C7.553,33.341 6.86,31.955 6.755,30.044 L9.191,30.044 C9.359,31.178 9.758,31.997 10.409,32.48 C10.997,32.9 11.9,33.131 13.139,33.131 C14.231,33.131 15.113,32.942 15.743,32.585 C16.373,32.207 16.709,31.724 16.709,31.094 C16.709,30.296 16.226,29.666 15.302,29.204 C15.008,29.057 14.042,28.721 12.383,28.217 C10.535,27.629 9.38,27.209 8.939,26.957 C7.784,26.264 7.217,25.256 7.217,23.933 C7.217,22.61 7.763,21.56 8.897,20.804 C9.947,20.069 11.27,19.712 12.887,19.712 Z M28.273,19.712 C30.562,19.712 32.368,20.447 33.691,21.938 C34.951,23.345 35.581,25.214 35.581,27.524 C35.581,29.771 34.972,31.598 33.796,32.984 C34.342,33.698 34.909,34.454 35.455,35.252 L33.859,36.638 C33.292,35.819 32.746,35.042 32.2,34.328 C31.108,34.958 29.785,35.294 28.273,35.294 C25.963,35.294 24.157,34.538 22.855,33.068 C21.595,31.64 20.986,29.792 20.986,27.524 C20.986,25.235 21.595,23.387 22.855,21.959 C24.157,20.447 25.963,19.712 28.273,19.712 Z M28.273,21.875 C26.719,21.875 25.522,22.4 24.661,23.45 C23.842,24.458 23.443,25.802 23.443,27.524 C23.443,29.225 23.842,30.569 24.661,31.577 C25.501,32.606 26.719,33.131 28.273,33.131 C29.26,33.131 30.1,32.921 30.814,32.522 C30.058,31.598 29.344,30.779 28.651,30.044 L30.079,28.658 C30.814,29.435 31.549,30.254 32.263,31.094 C32.809,30.17 33.103,28.973 33.103,27.524 C33.103,25.76 32.683,24.374 31.864,23.366 C31.024,22.358 29.827,21.875 28.273,21.875 Z M38.241,20.006 L40.677,20.006 L40.677,32.9 L48.783,32.9 L48.783,35 L38.241,35 L38.241,20.006 Z" fill="#FFFFFF" fill-rule="nonzero"></path>
                    </g>
                </g>
            </g>
        </g>
    </g>
</svg>