<?xml version="1.0" encoding="UTF-8"?>
<svg width="56px" height="56px" viewBox="0 0 56 56" version="1.1" xmlns="http://www.w3.org/2000/svg" xmlns:xlink="http://www.w3.org/1999/xlink">
    <title>TAPD</title>
    <g id="页面-1" stroke="none" stroke-width="1" fill="none" fill-rule="evenodd">
        <g id="快捷应用" transform="translate(-266.000000, -180.000000)">
            <g id="编组" transform="translate(232.000000, 118.000000)">
                <g id="编组-2" transform="translate(24.000000, 16.000000)">
                    <g id="TAPD" transform="translate(10.000000, 46.000000)">
                        <path d="M25.6687182,-6.73932599e-16 L30.3312818,6.73932599e-16 C37.0971651,-5.68940006e-16 41.1601176,1.02108172 44.7453027,2.93845974 C48.3304879,4.85583776 51.1441622,7.66951208 53.0615403,11.2546973 C54.9789183,14.8398824 56,18.9028349 56,25.6687182 L56,30.3312818 C56,37.0971651 54.9789183,41.1601176 53.0615403,44.7453027 C51.1441622,48.3304879 48.3304879,51.1441622 44.7453027,53.0615403 C41.1601176,54.9789183 37.0971651,56 30.3312818,56 L25.6687182,56 C18.9028349,56 14.8398824,54.9789183 11.2546973,53.0615403 C7.66951208,51.1441622 4.85583776,48.3304879 2.93845974,44.7453027 C1.02108172,41.1601176 3.79293337e-16,37.0971651 -4.492884e-16,30.3312818 L4.492884e-16,25.6687182 C-3.79293337e-16,18.9028349 1.02108172,14.8398824 2.93845974,11.2546973 C4.85583776,7.66951208 7.66951208,4.85583776 11.2546973,2.93845974 C14.8398824,1.02108172 18.9028349,5.68940006e-16 25.6687182,-6.73932599e-16 Z" id="矩形备份-11" fill="#FFFFFF"></path>
                        <g id="tapd_logo_svg_new-cd704da109" transform="translate(5.000000, 19.000000)" fill-rule="nonzero">
                            <path d="M0.506582278,3.45699425 C0.506582278,3.45699425 -0.282987342,4.04732796 0.110050633,5.05325662 L5.26263291,18.2230115 C5.26263291,18.2230115 5.73136709,18.7047238 6.64962025,18.6220771 C7.56787342,18.5394304 13.3877468,17.0252244 13.3877468,17.0252244 C13.3877468,17.0252244 14.0661013,16.7276962 14.1796456,16.2270932 C14.2937722,15.7282612 13.1891899,1.06260069 13.1891899,1.06260069 C13.1891899,1.06260069 13.1792911,0.177690449 12.5946835,0.264469505 C12.0094937,0.350658228 0.506582278,3.45699425 0.506582278,3.45699425 Z" id="路径" fill="#E84441"></path>
                            <path d="M24.2513165,4.80177445 C24.2513165,4.80177445 22.2488608,4.38558918 21.8732911,4.80177445 C21.4977215,5.21795972 21.1209873,5.98952589 21.0802278,6.79710242 C21.0406329,7.60467894 19.7823291,14.4938734 20.6842785,15.3770127 C21.1920253,15.874664 27.3880506,18.3552463 28.8088101,18.5695374 C30.2295696,18.7820575 30.5923291,18.3700046 30.5923291,18.3700046 L35.5463544,7.39511047 C35.5463544,7.39511047 35.8514684,6.36320713 35.3483797,6.39744649 C34.8452911,6.43168585 24.2513165,4.80177445 24.2513165,4.80177445 L24.2513165,4.80177445 Z" id="路径" fill="#9680B9"></path>
                            <path d="M15.6557215,3.60989068 C15.6557215,3.60989068 14.5493924,3.48296893 13.9799241,3.95995857 C13.7342025,4.16598504 13.3528101,4.8673015 13.2031646,5.39151784 C12.7006582,7.15071231 11.6176203,11.1785593 11.6176203,11.1785593 C11.6176203,11.1785593 11.2944557,12.2718573 12.0135696,12.775412 C12.7332658,13.2789666 22.3187342,15.1698055 22.3187342,15.1698055 C22.3187342,15.1698055 22.9202278,15.4543464 23.3091899,15.1698055 C23.6993165,14.8852647 23.0529873,6.40925316 22.9277975,5.2911611 C22.8730633,4.80177445 22.8113418,4.39916686 22.6750886,4.12052934 C22.4998228,3.76101611 21.6561013,3.60811968 21.5367342,3.61107135 C21.415038,3.61284235 15.6557215,3.60989068 15.6557215,3.60989068 Z" id="路径" fill="#379139"></path>
                            <path d="M34.2053671,2.21375144 C34.1087089,2.1499954 32.8259494,1.96935328 32.6198228,2.41328423 C32.4136962,2.85721519 32.8183797,16.7790552 32.8183797,16.7790552 C32.8183797,16.7790552 33.1549367,17.7832129 33.6108608,17.9768423 C34.0667848,18.1687008 40.9429114,18.5754407 40.9429114,18.5754407 C40.9429114,18.5754407 41.5112152,18.7897319 41.7359747,18.3759079 C41.9601519,17.962084 45.698962,4.20848907 45.698962,4.20848907 C45.698962,4.20848907 45.9767089,3.04080898 45.1044557,3.01129229 C44.2333671,2.98236594 34.3026076,2.27809781 34.2053671,2.21375144 L34.2053671,2.21375144 Z" id="路径" fill="#F1931D"></path>
                            <path d="M12.2680253,2.36133487 L1.17037975,5.55385961 L1.76488608,8.54685155 L5.62481013,7.30124741 L7.76759494,16.5021887 L11.2973671,15.6143268 L9.15458228,6.34903913 L12.8625316,5.35432681 L12.2680253,2.36133487 Z M40.8043291,5.35432681 L40.5440506,7.65426697 L40.2104051,7.54977791 C40.2104051,7.54977791 37.8294684,7.01316456 36.8413418,7.35024511 C35.9376456,7.65780898 34.5454177,8.59939125 34.0667848,10.3420564 C33.548557,12.2340759 33.933443,14.5493648 36.0482785,14.931901 C38.1642785,15.3144373 39.4377215,14.3699033 39.4377215,14.3699033 L39.1023291,15.4832727 L41.8838734,15.4832727 L43.7762785,5.55444994 L40.8043291,5.35432681 L40.8043291,5.35432681 Z M39.528557,11.7169436 C39.0318734,12.6059862 38.2166835,12.874588 37.5744304,12.7606536 C36.8861772,12.6372739 36.6235696,11.3273234 37.1755696,10.3827894 C37.7176709,9.45478481 39.0930127,9.06221289 39.6508354,9.45478481 C40.1871139,9.83141772 40.0176709,10.8426594 39.528557,11.7169436 L39.528557,11.7169436 Z M29.5087089,6.152458 C28.2486582,6.08929229 27.5889367,6.05682394 25.9410886,6.55152359 C24.2944051,7.04622325 24.1575696,7.15012198 24.1575696,7.15012198 L24.9506329,16.5281634 L27.5266329,16.3286306 L27.1301013,12.5375075 C27.1301013,12.5375075 28.0885316,13.1390575 29.1115949,13.1361059 C30.1352405,13.1337445 31.428481,12.5150748 31.6875949,11.5398435 C31.9461266,10.5652025 32.0806329,9.2776847 31.8861519,8.54744189 C31.6922532,7.81719908 30.7705063,6.21680437 29.5087089,6.152458 Z M28.4186835,11.340901 C27.8166076,11.4507031 26.920481,10.5616605 26.8704051,9.66671461 C26.8197468,8.74166168 27.0718734,8.33846375 27.6611392,8.17671231 C28.5031139,7.9453015 29.1803038,8.63067894 29.3456709,9.51204718 C29.5092911,10.3940058 29.0207595,11.2299183 28.4186835,11.340901 Z M20.9946329,5.51194591 C19.8848101,4.8271588 20.438557,5.0721473 18.8075949,4.95526122 C17.0916203,4.83306214 15.240557,4.95526122 15.240557,4.95526122 L14.6460506,6.75105639 C14.6460506,6.75105639 17.9458228,6.52968124 18.2130886,6.75105639 C18.4797722,6.97243153 18.7185063,7.03618757 18.609038,7.34965478 C18.4995696,7.66312198 18.410481,7.74813003 18.410481,7.74813003 C18.410481,7.74813003 16.9314937,7.92050748 15.6365063,8.14719563 C14.3409367,8.37388377 13.2893418,9.00436018 13.0605063,9.94299079 C12.8305063,10.8822117 13.0343038,12.2370276 14.050962,12.5375075 C15.0664557,12.8379873 17.0229114,12.7370403 17.0229114,12.7370403 L17.5539494,11.5233142 C17.5539494,11.5233142 16.008,11.5681795 16.0324557,10.9412451 C16.0452658,10.6053452 16.1005823,10.2098216 17.2214684,9.94417146 C18.3423544,9.67852129 18.5676962,9.77946835 18.5676962,9.77946835 L17.9481519,12.9767158 L20.7890886,13.3368193 L21.7795443,7.74872037 C21.7801266,7.74872037 22.1172658,6.20558803 20.9946329,5.51194591 Z" id="形状" fill="#FFFFFF"></path>
                        </g>
                    </g>
                </g>
            </g>
        </g>
    </g>
</svg>